<svg width="816" height="584" viewBox="0 0 816 584" fill="none" xmlns="http://www.w3.org/2000/svg">
<g clip-path="url(#clip0)">
<path d="M777.01 586.755H0.139101C-3.61589 502.897 70.0442 515.923 52.8802 393.347C44.5103 333.578 60.6783 259.049 96.1579 199.813C101.802 190.401 108.153 181.494 115.15 173.18C131.132 154.317 149.996 138.48 170.94 126.339C185.305 117.951 200.414 111.101 216.045 105.888C216.841 105.622 217.626 105.356 218.417 105.103C252.243 94.2591 287.668 90.2404 322.876 93.2531C323.666 93.329 324.457 93.3918 325.247 93.4676C350.154 95.7084 374.639 101.693 397.975 111.243C410.605 116.484 425.016 123.46 440.387 130.511C441.17 130.879 441.968 131.246 442.759 131.6C460.183 139.563 478.784 147.514 497.361 153.109C516.4 158.845 535.428 162.103 553.15 160.323C562.594 159.467 571.829 156.885 580.451 152.689C581.638 152.094 582.823 151.536 584.012 150.98C584.795 150.625 585.593 150.271 586.384 149.917C611.626 138.731 639.703 137.123 665.924 145.359C714.402 160.209 756.886 204.503 776.85 255.287C811.943 344.54 823.625 507.472 777.01 586.755Z" fill="url(#paint0_linear)"/>
<path d="M75.9106 531.679C77.9933 542.142 70.335 547.5 66.2405 548.87L44.6675 552.233C45.4122 538.53 46.4526 510.526 44.6675 508.137C42.4364 505.146 43.1801 486.461 42.8087 482.722C42.4373 478.984 49.1307 473.754 55.8259 470.016C62.5211 466.277 61.0328 463.663 64.7522 455.067C68.4717 446.471 75.9106 446.472 80.746 448.714C85.5815 450.956 84.4646 460.299 80.746 469.268C77.0275 478.238 82.6048 477.491 84.4646 489.45C86.3243 501.408 78.1426 501.409 72.9357 508.137C67.7288 514.864 73.3071 518.599 75.9106 531.679Z" fill="#518D49"/>
<path d="M48.2532 523.111C44.5562 526.64 46.2595 535.676 46.7523 539.548L51.0563 543.509C49.2982 537.832 47.674 529.433 51.7038 525.793C56.2595 521.671 59.8873 514.903 60.247 509.648C60.5536 505.269 57.3953 500.146 60.1391 494.271C62.4682 489.284 62.9098 486.634 67.6328 479.924C63.9367 484.261 60.9934 487.206 58.4988 492.04C56.0041 496.873 54.7766 501.097 56.1516 506.474C57.5266 511.852 52.8755 518.698 48.2532 523.111Z" fill="white"/>
<path d="M23.4962 454.144C23.935 451.172 25.3559 446.971 29.0718 445.997C37.6258 443.755 39.8569 452.35 39.4855 459.451C39.1141 466.553 44.321 465.804 47.2958 470.663C49.0944 473.597 51.66 478.398 48.4127 485.238C45.7373 490.87 40.499 494.046 51.66 505.631C60.5873 514.899 51.2644 528.965 47.2958 533.075L51.3876 557.744L35.0205 556.997C35.3928 548.4 35.1698 530.761 31.3011 528.968C26.4665 526.725 10.193 517.457 18.6553 506.919C31.3011 491.168 18.6553 491.594 18.6553 480.956C18.6553 473.297 20.8874 467.677 23.4908 464.691C26.0942 461.704 22.8676 458.4 23.4962 454.144Z" fill="#6BBC61"/>
<path d="M39.3096 513.102C42.0462 517.428 38.2143 525.78 36.8033 529.416L31.6729 532.211C34.7476 527.133 38.3465 519.379 35.3159 514.861C31.8878 509.755 30.0047 502.306 30.9094 497.118C31.6675 492.795 35.967 488.592 34.7206 482.225C33.663 476.82 33.8744 474.141 30.9094 466.481C33.4508 471.587 35.5956 475.163 36.851 480.46C38.1064 485.757 38.2791 490.152 35.6486 495.035C33.0182 499.918 35.8896 507.697 39.3096 513.102Z" fill="white"/>
<path d="M14.756 533.409C12.3747 541.481 18.8253 547.234 21.9251 549.105V551.348H38.1878C39.3029 550.6 44.7859 555.832 49.5467 551.348C55.4973 545.741 50.4613 529.299 45.6258 527.055C38.7858 523.882 32.98 520.327 34.8407 510.985C36.7013 501.642 31.8649 497.405 23.2911 494.991C12.7047 492.009 16.6202 484.78 15.8711 479.963C13.7929 466.595 -4.24144 479.215 1.71004 487.811C7.66152 496.408 5.45737 494.911 1.36561 500.891C-2.72614 506.871 3.22534 517.709 8.0608 520.325C12.8963 522.941 17.7308 523.318 14.756 533.409Z" fill="#A7DF63"/>
<path d="M25.412 536.694C24.7339 541.121 29.3643 547.048 31.7636 549.459L36.8455 549.885C32.6108 546.903 28.376 541.374 29.2231 536.692C30.1809 531.396 29.2231 523.926 26.6818 520.097C24.5648 516.905 21.2582 515.923 17.366 512.012C13.9775 508.608 13.4092 502.651 12.2842 498.396C13.1313 503.076 12.7077 506.906 13.5549 511.588C14.402 516.271 18.2123 517.971 22.0235 520.95C25.8346 523.929 26.2555 531.162 25.412 536.694Z" fill="white"/>
<path d="M43.9088 583.489C66.4188 583.489 66.5978 567.269 66.5978 549.105H21.2207C21.2207 567.269 21.3997 583.489 43.9088 583.489Z" fill="#C9E2F4"/>
<path d="M770.154 528.633C766.931 509.333 756.543 469.041 741.131 450.867C752.488 461.433 767.126 478.508 770.154 509.614C770.978 467.821 772.114 381.943 770.297 364.936C770.246 364.551 770.207 364.174 770.154 363.802C770.204 364.137 770.244 364.515 770.297 364.936C773.822 393.581 779.786 458.145 776.463 496.512C783.756 465.8 800.691 400.994 810.113 387.47C801.002 422.126 781.515 498.879 776.463 528.633H770.154Z" fill="url(#paint1_linear)"/>
<path d="M772.257 584C804.829 584 816.001 569.566 816.001 551.76C816.001 542.013 810.129 533.277 800.858 527.362H743.655C734.38 533.274 728.513 542.01 728.513 551.76C728.513 569.566 739.685 584 772.257 584Z" fill="url(#paint2_linear)"/>
<g opacity="0.5">
<g opacity="0.5">
<path opacity="0.5" d="M407.552 63.0935H353.305V135.187H407.552V63.0935Z" fill="#F5F5F5"/>
<path opacity="0.5" d="M468.725 63.0935H414.478V135.187H468.725V63.0935Z" fill="#F5F5F5"/>
<path opacity="0.5" d="M407.552 142.146H353.305V214.239H407.552V142.146Z" fill="#F5F5F5"/>
<path opacity="0.5" d="M468.725 142.146H414.478V214.239H468.725V142.146Z" fill="#F5F5F5"/>
</g>
<path opacity="0.5" d="M346.379 56.1348V221.199H475.65V56.1348H346.379ZM468.725 135.188H414.477V63.0936H468.725V135.188ZM407.552 63.0936V135.188H353.304V63.0936H407.552ZM353.304 142.146H407.552V214.24H353.304V142.146ZM414.477 214.24V142.146H468.725V214.24H414.477Z" fill="#848ACB"/>
<g opacity="0.5">
<g opacity="0.5">
<path opacity="0.5" d="M378.704 88.1592L369.541 97.3659C368.796 98.1151 368.796 99.3297 369.541 100.079C370.287 100.828 371.496 100.828 372.241 100.079L381.404 90.8722C382.15 90.123 382.15 88.9084 381.404 88.1592C380.658 87.41 379.45 87.41 378.704 88.1592Z" fill="#848ACB"/>
<path opacity="0.5" d="M388.615 91.8034L373.726 106.765C372.98 107.514 372.98 108.728 373.726 109.478C374.472 110.227 375.68 110.227 376.426 109.478L391.315 94.5164C392.061 93.7673 392.061 92.5526 391.315 91.8034C390.57 91.0543 389.361 91.0543 388.615 91.8034Z" fill="#848ACB"/>
</g>
</g>
<g opacity="0.5">
<g opacity="0.5">
<path opacity="0.5" d="M439.877 88.1592L430.714 97.3659C429.969 98.1151 429.969 99.3297 430.714 100.079C431.46 100.828 432.669 100.828 433.414 100.079L442.577 90.8722C443.322 90.123 443.322 88.9084 442.577 88.1592C441.831 87.41 440.622 87.41 439.877 88.1592Z" fill="#848ACB"/>
<path opacity="0.5" d="M449.788 91.8034L434.899 106.765C434.153 107.514 434.153 108.728 434.899 109.478C435.644 110.227 436.853 110.227 437.599 109.478L452.488 94.5164C453.234 93.7673 453.234 92.5526 452.488 91.8034C451.743 91.0543 450.534 91.0543 449.788 91.8034Z" fill="#848ACB"/>
</g>
</g>
<g opacity="0.5">
<g opacity="0.5">
<path opacity="0.5" d="M378.704 167.211L369.541 176.418C368.796 177.167 368.796 178.382 369.541 179.131C370.287 179.88 371.496 179.88 372.241 179.131L381.404 169.924C382.15 169.175 382.15 167.961 381.404 167.211C380.658 166.462 379.45 166.462 378.704 167.211Z" fill="#848ACB"/>
<path opacity="0.5" d="M388.615 170.856L373.726 185.817C372.98 186.566 372.98 187.781 373.726 188.53C374.472 189.279 375.68 189.279 376.426 188.53L391.315 173.569C392.061 172.819 392.061 171.605 391.315 170.856C390.57 170.106 389.361 170.106 388.615 170.856Z" fill="#848ACB"/>
</g>
</g>
<g opacity="0.5">
<g opacity="0.5">
<path opacity="0.5" d="M439.877 167.211L430.714 176.418C429.969 177.167 429.969 178.382 430.714 179.131C431.46 179.88 432.669 179.88 433.414 179.131L442.577 169.924C443.322 169.175 443.322 167.961 442.577 167.211C441.831 166.462 440.622 166.462 439.877 167.211Z" fill="#848ACB"/>
<path opacity="0.5" d="M449.788 170.856L434.899 185.817C434.153 186.566 434.153 187.781 434.899 188.53C435.644 189.279 436.853 189.279 437.599 188.53L452.488 173.569C453.234 172.819 453.234 171.605 452.488 170.856C451.743 170.106 450.534 170.106 449.788 170.856Z" fill="#848ACB"/>
</g>
</g>
</g>
<g opacity="0.5">
<path opacity="0.5" d="M584.782 6.95874C578.545 6.95981 572.448 8.81914 567.263 12.3016C562.077 15.7841 558.036 20.7334 555.65 26.5236C553.263 32.3139 552.639 38.6851 553.856 44.8317C555.073 50.9783 558.077 56.6243 562.487 61.0557C566.898 65.4871 572.517 68.505 578.634 69.7278C584.751 70.9506 591.092 70.3234 596.854 67.9255C602.616 65.5275 607.542 61.4666 611.008 56.256C614.473 51.0455 616.323 44.9194 616.324 38.6523C616.324 30.2466 613.001 22.1852 607.085 16.2415C601.17 10.2978 593.147 6.95874 584.782 6.95874V6.95874Z" fill="#F5F5F5"/>
<path opacity="0.5" d="M584.781 0C577.175 0.00107231 569.739 2.26853 563.415 6.51566C557.09 10.7628 552.161 16.7989 549.251 23.8607C546.34 30.9225 545.579 38.6929 547.064 46.1893C548.548 53.6858 552.211 60.5717 557.59 65.9763C562.969 71.381 569.822 75.0616 577.282 76.5529C584.743 78.0442 592.476 77.2792 599.504 74.3546C606.532 71.43 612.539 66.4771 616.765 60.1222C620.992 53.7673 623.248 46.2958 623.249 38.6524C623.248 28.4013 619.195 18.5703 611.981 11.3218C604.767 4.07321 594.983 0.000718844 584.781 0V0ZM584.781 70.3378C578.544 70.3367 572.447 68.4772 567.261 64.9944C562.076 61.5115 558.034 56.5618 555.648 50.771C553.262 44.9803 552.639 38.6087 553.857 32.4619C555.074 26.3151 558.079 20.6691 562.49 16.238C566.901 11.8069 572.521 8.78962 578.638 7.56774C584.756 6.34586 591.097 6.97424 596.859 9.37343C602.621 11.7726 607.546 15.8348 611.011 21.0464C614.476 26.258 616.325 32.3849 616.324 38.6524C616.322 47.0568 612.998 55.1162 607.082 61.0582C601.167 67.0002 593.145 70.3381 584.781 70.3378Z" fill="#70B3F2"/>
<g opacity="0.5">
<g opacity="0.5">
<path opacity="0.5" d="M597.988 41.854C597.989 42.2196 597.917 42.5817 597.778 42.9196C597.639 43.2575 597.435 43.5645 597.178 43.8231C596.921 44.0816 596.615 44.2866 596.279 44.4263C595.942 44.566 595.582 44.6376 595.218 44.6372H584.117C583.754 44.6376 583.393 44.566 583.057 44.4263C582.721 44.2866 582.415 44.0816 582.158 43.8231C581.901 43.5645 581.697 43.2575 581.558 42.9196C581.419 42.5817 581.347 42.2196 581.348 41.854V25.4226C581.348 24.6844 581.639 23.9765 582.159 23.4546C582.678 22.9326 583.383 22.6394 584.117 22.6394C584.852 22.6394 585.557 22.9326 586.076 23.4546C586.595 23.9765 586.887 24.6844 586.887 25.4226V39.0672H595.216C595.581 39.0665 595.942 39.1381 596.278 39.2779C596.615 39.4178 596.921 39.623 597.178 39.882C597.436 40.1409 597.64 40.4484 597.779 40.7868C597.918 41.1253 597.989 41.4879 597.988 41.854V41.854Z" fill="#70B3F2"/>
</g>
</g>
</g>
<path d="M237.434 453.909L208.71 439.976H280.023L249.813 453.909V560.404H237.434V453.909Z" fill="#CDE3FE"/>
<path d="M223.072 583.793C229.09 583.793 233.968 578.891 233.968 572.845C233.968 566.798 229.09 561.896 223.072 561.896C217.055 561.896 212.177 566.798 212.177 572.845C212.177 578.891 217.055 583.793 223.072 583.793Z" fill="#B7D5FD"/>
<path d="M188.902 559.906H296.865C298.835 559.906 300.724 560.693 302.117 562.092C303.51 563.492 304.293 565.391 304.293 567.371V567.371C304.293 569.35 303.51 571.249 302.117 572.649C300.724 574.049 298.835 574.835 296.865 574.835H188.902C186.932 574.835 185.042 574.049 183.649 572.649C182.256 571.249 181.474 569.35 181.474 567.371C181.474 565.391 182.256 563.492 183.649 562.092C185.042 560.693 186.932 559.906 188.902 559.906V559.906Z" fill="#CDE3FE"/>
<path d="M187.413 583.793C193.431 583.793 198.309 578.891 198.309 572.845C198.309 566.798 193.431 561.896 187.413 561.896C181.396 561.896 176.518 566.798 176.518 572.845C176.518 578.891 181.396 583.793 187.413 583.793Z" fill="#B7D5FD"/>
<path d="M300.331 583.793C306.349 583.793 311.227 578.891 311.227 572.845C311.227 566.798 306.349 561.896 300.331 561.896C294.314 561.896 289.436 566.798 289.436 572.845C289.436 578.891 294.314 583.793 300.331 583.793Z" fill="#B7D5FD"/>
<path d="M162.499 270.883C164.006 256.953 171.165 250.946 174.555 249.684C168.779 285.395 156.698 361.892 154.591 382.184C151.953 407.547 181.716 422.69 198.67 422.69H350.503C350.503 432.911 342.589 442.375 327.898 442.375H191.886C151.574 442.375 145.536 411.841 146.675 396.947C147.804 382.183 160.615 288.297 162.499 270.883Z" fill="#DDEEFE"/>
<path d="M226.924 245.898H183.974C174.931 245.898 169.657 253.091 167.773 270.884C165.889 288.677 157.978 342.812 153.456 380.668C148.935 418.524 189.248 423.447 209.212 423.447H290.214C257.436 423.447 256.683 349.247 252.533 306.847C248.384 264.446 242.747 245.898 226.924 245.898Z" fill="#ECF6FF"/>
<path d="M288.445 176.229C306.874 184.923 303.302 203.101 292.902 205.092C286.579 209.167 274.197 231.964 256.751 231.964C239.913 231.964 238.922 198.62 249.817 191.655C249.817 191.655 240.903 182.769 233.969 197.129C222.325 221.249 239.642 259.072 226.046 250.874C218.617 246.396 195.835 215.138 220.598 182.244C237.853 159.322 251.084 172.282 257.858 182.244C261.018 177.263 270.017 167.535 288.445 176.229Z" fill="#503544"/>
<path d="M257.739 182.201C254.966 183.793 251.301 189.167 249.816 191.655C249.32 192.461 248.826 191.158 247.837 190.661C246.848 190.164 254.771 180.709 256.256 180.211C257.442 179.811 257.739 181.371 257.739 182.201Z" fill="#FF5A5A"/>
<path d="M256.942 249.992V224.42C255.253 222.883 253.702 221.198 252.309 219.386C251.01 217.738 248.5 213.706 253.274 211.299C257.092 209.372 260.715 213.686 262.241 217.6C262.515 215.439 263.548 213.448 265.154 211.985C267.133 210.433 268.392 203.671 269.506 200.576C273.106 202.809 276.873 204.759 280.772 206.408C286.458 208.884 292.013 205.124 294.734 203.213C294.734 211.299 294.277 223.852 293.364 233.025C292.187 244.856 281.176 242.655 281.176 242.655V259.41L273.314 268.903L256.942 249.992Z" fill="url(#paint3_linear)"/>
<path d="M256.381 222.858C256.477 222.046 255.896 221.308 255.082 221.21C254.268 221.112 253.529 221.69 253.432 222.503C253.335 223.315 253.917 224.053 254.731 224.151C255.545 224.249 256.284 223.67 256.381 222.858Z" fill="#FF5A5A"/>
<path d="M266.195 233.939C270.459 237.915 275.548 240.891 281.094 242.653V247.24C270.761 243.609 266.856 236.753 266.195 233.939Z" fill="#1D164D"/>
<path d="M290.991 218.367C291.001 216.852 290.517 215.621 289.91 215.617C289.302 215.613 288.801 216.837 288.791 218.352C288.781 219.866 289.265 221.098 289.872 221.102C290.48 221.106 290.98 219.882 290.991 218.367Z" fill="#151C58"/>
<path d="M277.797 218.279C277.808 216.765 277.324 215.533 276.716 215.529C276.109 215.525 275.608 216.75 275.598 218.264C275.587 219.779 276.071 221.01 276.679 221.014C277.286 221.018 277.787 219.794 277.797 218.279Z" fill="#151C58"/>
<path fill-rule="evenodd" clip-rule="evenodd" d="M290.354 211.268C291.163 211.463 291.887 211.918 292.415 212.564C292.473 212.634 292.557 212.679 292.648 212.687C292.738 212.696 292.829 212.669 292.899 212.611C292.934 212.583 292.963 212.548 292.984 212.508C293.006 212.468 293.019 212.425 293.023 212.38C293.028 212.335 293.023 212.289 293.01 212.246C292.997 212.203 292.975 212.163 292.946 212.129C292.317 211.36 291.454 210.82 290.49 210.592C289.816 210.477 289.123 210.556 288.491 210.82C287.86 211.084 287.315 211.523 286.921 212.084C286.892 212.119 286.87 212.158 286.856 212.201C286.842 212.244 286.837 212.289 286.841 212.334C286.845 212.379 286.857 212.423 286.878 212.463C286.899 212.502 286.927 212.538 286.961 212.567C287.031 212.625 287.121 212.654 287.212 212.646C287.302 212.639 287.386 212.596 287.445 212.526C287.761 212.06 288.202 211.694 288.717 211.471C289.233 211.248 289.801 211.178 290.354 211.268V211.268Z" fill="#7C4030"/>
<path fill-rule="evenodd" clip-rule="evenodd" d="M276.609 211.533C277.417 211.729 278.141 212.184 278.669 212.829C278.727 212.899 278.811 212.944 278.901 212.952C278.992 212.961 279.082 212.934 279.153 212.876C279.188 212.848 279.216 212.812 279.238 212.773C279.259 212.733 279.272 212.689 279.277 212.645C279.281 212.6 279.276 212.554 279.263 212.511C279.25 212.468 279.228 212.428 279.2 212.393C278.571 211.624 277.708 211.085 276.744 210.857C276.069 210.742 275.376 210.821 274.744 211.085C274.113 211.349 273.569 211.787 273.174 212.349C273.145 212.383 273.123 212.423 273.109 212.466C273.095 212.509 273.09 212.554 273.094 212.599C273.098 212.644 273.11 212.688 273.131 212.727C273.152 212.767 273.18 212.803 273.215 212.832C273.285 212.89 273.375 212.919 273.465 212.911C273.556 212.904 273.64 212.861 273.699 212.792C274.015 212.325 274.456 211.959 274.971 211.736C275.487 211.513 276.055 211.443 276.609 211.533Z" fill="#7C4030"/>
<path d="M285.575 227.645C285.117 227.685 284.656 227.634 284.219 227.495C283.781 227.355 283.375 227.13 283.025 226.831C283.004 226.805 282.989 226.775 282.98 226.744C282.971 226.712 282.969 226.678 282.973 226.645C282.977 226.612 282.987 226.58 283.004 226.552C283.021 226.523 283.043 226.498 283.069 226.478C283.095 226.458 283.126 226.444 283.158 226.435C283.19 226.427 283.223 226.426 283.256 226.431C283.288 226.436 283.32 226.447 283.348 226.465C283.376 226.482 283.4 226.505 283.419 226.532C283.756 226.979 285.075 227.255 286.187 227.113C286.8 227.035 287.228 226.838 287.33 226.588C287.419 226.379 287.261 226.113 287.116 225.927C285.024 223.229 284.141 219.019 283.808 217.433C283.801 217.401 283.801 217.368 283.807 217.336C283.813 217.303 283.825 217.273 283.843 217.245C283.86 217.218 283.883 217.194 283.91 217.176C283.937 217.157 283.967 217.144 283.999 217.138C284.031 217.131 284.064 217.131 284.096 217.137C284.128 217.143 284.158 217.155 284.185 217.173C284.213 217.19 284.236 217.213 284.255 217.24C284.273 217.267 284.286 217.298 284.293 217.33C284.619 218.884 285.485 223.012 287.507 225.619C287.655 225.767 287.759 225.953 287.809 226.157C287.858 226.361 287.851 226.575 287.787 226.775C287.607 227.205 287.068 227.498 286.249 227.605C286.026 227.633 285.8 227.646 285.575 227.645V227.645Z" fill="#F4AC94"/>
<path fill-rule="evenodd" clip-rule="evenodd" d="M277.563 230.037C277.522 230.057 277.486 230.084 277.457 230.118C277.427 230.152 277.404 230.191 277.389 230.234C277.375 230.276 277.369 230.321 277.372 230.366C277.375 230.411 277.386 230.455 277.406 230.495C277.667 231.073 278.047 231.587 278.522 232.004C278.997 232.421 279.556 232.73 280.16 232.912C281.008 233.157 281.909 233.152 282.754 232.896C282.84 232.868 282.911 232.806 282.952 232.725C282.993 232.644 283 232.55 282.972 232.464C282.943 232.378 282.882 232.306 282.801 232.265C282.721 232.224 282.627 232.217 282.541 232.246C281.827 232.457 281.068 232.46 280.352 232.254C279.84 232.099 279.366 231.834 278.964 231.479C278.562 231.123 278.241 230.685 278.022 230.194C278.002 230.153 277.975 230.117 277.941 230.087C277.907 230.057 277.868 230.034 277.825 230.02C277.782 230.005 277.737 229.999 277.692 230.002C277.647 230.005 277.603 230.017 277.563 230.037V230.037Z" fill="#D74848"/>
<path d="M209.423 414.886C210.754 409.87 209.669 398.291 207.943 394.08C202.767 393.585 192.414 393.412 192.414 396.681C192.414 400.768 190.935 403.368 187.977 408.199C185.02 413.029 183.539 426.775 187.977 432.719C192.415 438.663 193.523 436.435 195.002 429.376C196.48 422.317 203.506 411.171 203.506 418.23C203.506 425.289 207.943 433.092 209.423 429.376C210.902 425.66 207.943 420.46 209.423 414.886Z" fill="url(#paint4_linear)"/>
<path d="M306.296 273.334C302.45 262.635 288.425 258.721 281.893 258.102C280.783 253.273 286.699 244.356 280.783 245.469C274.866 246.583 255.64 243.241 256.01 246.213C256.306 248.591 254.655 253.52 253.792 256.616C252.313 256.616 246.322 257.582 234.196 261.446C219.036 266.276 204.687 313.404 200.249 325.667C195.811 337.931 191.306 394.824 191.306 397.425C191.306 400.026 206.465 396.31 207.942 394.824C209.42 393.339 220.883 350.241 223.472 339.467C225.306 332.627 229.023 326.446 234.195 321.633C240.407 325.794 242.945 340.458 243.438 347.269C271.539 360.148 327.223 382.266 325.152 367.702C322.565 349.498 311.102 286.71 306.296 273.334Z" fill="url(#paint5_linear)"/>
<path d="M300.667 314.954C297.381 323.76 297.775 338.498 298.385 344.767L316.186 360.819C311.926 354.245 303.955 336.783 306.144 319.541C308.333 302.299 300.667 293.093 296.56 290.646C301.123 294.316 304.775 303.945 300.667 314.954Z" fill="url(#paint6_linear)"/>
<path d="M243.612 303.493C239.961 309.457 235.091 319.546 234.026 321.836C237.222 323.212 238.135 326.264 241.329 333.764C237.222 324.127 246.287 299.121 243.612 303.493Z" fill="url(#paint7_linear)"/>
<path d="M319.883 424.782C321.658 415.865 319.143 410.911 317.664 409.55C315.446 367.194 343.319 364.594 348.87 367.567C354.42 370.54 379.575 376.279 386.01 383.245C395.859 393.903 403.605 469.117 415.806 516.177L441.689 538.469C433.11 551.548 410.753 533.02 400.647 522.122C400.031 519.644 398.392 515.119 396.411 508.65C394.792 503.366 374.308 458.868 360.259 427.536L335.799 525.094C336.788 526.704 342.289 539.268 340.235 555.185C337.647 575.245 318.79 535.865 318.79 525.094C318.79 514.323 317.665 435.927 319.883 424.782Z" fill="url(#paint8_linear)"/>
<path d="M356.293 386.729C363.029 393.497 364.713 407.132 360.255 427.536L369.665 448.436C365.208 436.99 368.676 421.066 369.665 410.123C370.458 401.36 359.101 388.72 356.293 386.729Z" fill="#1D164D"/>
<path d="M313.22 528.754C313.515 526.375 316.313 519.835 318.655 517.11L319.15 527.56C325.436 553.567 335.404 558.102 338.732 555.875C341.395 554.091 337.838 534.361 335.988 525.071C343.383 545.132 347.237 578.538 344.648 581.51C342.059 584.482 333.556 584.853 327.27 575.937C320.984 567.021 312.85 531.725 313.22 528.754Z" fill="#FD5E53"/>
<path d="M400.513 537.593C395.486 534.323 397.678 524.342 399.405 519.76C404.704 524.217 417.669 532.541 424.177 537.593C430.685 542.645 436.995 539.079 439.706 535.735C440.077 536.354 441.703 538.265 445.253 540.936C449.689 544.28 459.303 549.482 446.362 555.798C436.008 560.851 416.659 547.005 408.279 539.451C407.788 540.194 405.54 540.863 400.513 537.593Z" fill="#FD5E53"/>
<path d="M244.524 344.668C248.37 346.746 281.276 345.535 298.161 344.668C299.64 347.937 353.499 368.817 380.245 378.848C346.598 380.334 322.484 424.073 320.635 428.53C318.787 432.988 333.306 430.367 261.205 424.052C189.105 417.737 239.718 342.067 244.524 344.668Z" fill="url(#paint9_linear)"/>
<path d="M153.739 359.085L144.229 361.02L286.622 583.914H296.947L153.739 359.085Z" fill="#FF976A"/>
<path d="M279.405 359.085L288.916 361.02L146.522 583.914H136.196L279.405 359.085Z" fill="#FFBC9F"/>
<path d="M463.653 359.085L454.143 361.02L596.536 583.914H606.863L463.653 359.085Z" fill="#FF976A"/>
<path d="M589.32 359.085L598.831 361.02L456.44 583.914H446.111L589.32 359.085Z" fill="#FFBC9F"/>
<path d="M293.859 353.886C293.859 352.583 294.114 351.294 294.61 350.091C295.106 348.887 295.833 347.794 296.75 346.873C297.666 345.952 298.754 345.222 299.951 344.723C301.149 344.225 302.432 343.969 303.728 343.969H612.478C615.079 343.993 617.566 345.049 619.396 346.906C621.227 348.763 622.254 351.271 622.254 353.885C622.254 356.499 621.227 359.007 619.396 360.864C617.566 362.721 615.079 363.777 612.478 363.802H303.728C301.111 363.802 298.601 362.757 296.75 360.898C294.899 359.038 293.859 356.516 293.859 353.886V353.886Z" fill="#C4D7FD"/>
<path d="M121.789 353.886C121.789 351.256 122.829 348.733 124.68 346.874C126.53 345.014 129.04 343.969 131.658 343.969H306.419C309.02 343.993 311.506 345.049 313.337 346.906C315.167 348.763 316.194 351.271 316.194 353.885C316.194 356.499 315.167 359.007 313.337 360.864C311.506 362.721 309.02 363.777 306.419 363.802H131.658C129.04 363.802 126.53 362.757 124.68 360.898C122.829 359.038 121.789 356.516 121.789 353.886Z" fill="#699AF9"/>
<path d="M329.896 312.88C329.883 312.742 329.899 312.603 329.944 312.472C329.988 312.341 330.058 312.22 330.152 312.118C330.245 312.016 330.358 311.935 330.484 311.879C330.611 311.824 330.747 311.795 330.885 311.796H358.417C358.555 311.795 358.692 311.824 358.818 311.879C358.944 311.935 359.058 312.016 359.151 312.118C359.244 312.22 359.315 312.341 359.359 312.472C359.403 312.603 359.419 312.742 359.407 312.88L356.619 342.739C356.596 342.986 356.482 343.217 356.299 343.384C356.116 343.551 355.877 343.643 355.63 343.642H333.667C333.42 343.643 333.181 343.551 332.998 343.384C332.815 343.217 332.701 342.986 332.678 342.739L329.896 312.88Z" fill="#D7ECFF"/>
<path fill-rule="evenodd" clip-rule="evenodd" d="M353.562 336.674V316.77H357.524C360.151 316.77 362.67 317.818 364.528 319.685C366.385 321.551 367.429 324.082 367.429 326.722C367.429 329.362 366.385 331.893 364.528 333.759C362.67 335.626 360.151 336.674 357.524 336.674H353.562ZM357.524 332.693C359.1 332.693 360.612 332.064 361.726 330.944C362.841 329.824 363.467 328.305 363.467 326.722C363.467 325.138 362.841 323.619 361.726 322.499C360.612 321.379 359.1 320.75 357.524 320.75V332.693Z" fill="#D7ECFF"/>
<path fill-rule="evenodd" clip-rule="evenodd" d="M428.981 309.999C429.69 317.246 428.673 324.559 426.013 331.334C421.9 325.251 419.25 318.291 418.273 311.003C417.563 303.755 418.581 296.441 421.241 289.666C425.354 295.749 428.004 302.709 428.982 309.998" fill="url(#paint10_linear)"/>
<path fill-rule="evenodd" clip-rule="evenodd" d="M426.201 319.231C429.677 325.659 431.585 332.824 431.767 340.137C425.575 335.798 420.394 330.16 416.581 323.613C413.105 317.185 411.197 310.021 411.015 302.708C417.207 307.046 422.389 312.684 426.201 319.231" fill="url(#paint11_linear)"/>
<path fill-rule="evenodd" clip-rule="evenodd" d="M433.669 311.234C432.596 318.514 429.856 325.444 425.666 331.48C423.091 324.674 422.166 317.35 422.968 310.113C424.042 302.834 426.781 295.903 430.971 289.868C433.546 296.673 434.471 303.998 433.669 311.234" fill="url(#paint12_linear)"/>
<path fill-rule="evenodd" clip-rule="evenodd" d="M439.038 319.54C435.873 326.357 431.247 332.387 425.493 337.198C424.972 329.927 426.187 322.636 429.036 315.933C432.201 309.116 436.826 303.087 442.581 298.277C443.102 305.548 441.887 312.838 439.038 319.542" fill="url(#paint13_linear)"/>
<path fill-rule="evenodd" clip-rule="evenodd" d="M413.624 323.785C413.605 323.644 413.616 323.501 413.657 323.365C413.698 323.229 413.767 323.104 413.86 322.997C413.953 322.89 414.068 322.804 414.197 322.746C414.325 322.687 414.465 322.657 414.606 322.657H439.427C439.568 322.657 439.708 322.687 439.837 322.746C439.965 322.804 440.08 322.89 440.173 322.997C440.267 323.103 440.336 323.229 440.377 323.365C440.417 323.501 440.429 323.644 440.41 323.785L437.815 343.237C437.783 343.476 437.667 343.696 437.486 343.854C437.306 344.013 437.074 344.101 436.834 344.1H417.199C416.959 344.101 416.727 344.013 416.547 343.854C416.366 343.696 416.249 343.476 416.218 343.237L413.624 323.785Z" fill="#D7ECFF"/>
<path d="M248.011 513.833H119.246V583.502H248.011V513.833Z" fill="url(#paint14_linear)"/>
<path d="M244.686 513.833H122.571C122.357 513.832 122.149 513.902 121.978 514.03C121.807 514.158 121.682 514.338 121.621 514.544C121.56 514.75 121.567 514.97 121.641 515.171C121.715 515.372 121.852 515.544 122.031 515.661L183.088 555.776C183.249 555.882 183.438 555.939 183.63 555.939C183.823 555.939 184.011 555.882 184.172 555.776L245.233 515.661C245.413 515.544 245.55 515.371 245.624 515.169C245.698 514.967 245.704 514.746 245.643 514.54C245.581 514.334 245.454 514.154 245.282 514.026C245.109 513.899 244.9 513.831 244.686 513.833V513.833Z" fill="#3F3572"/>
<path d="M183.628 563.597C187.457 563.597 190.561 560.478 190.561 556.63C190.561 552.783 187.457 549.663 183.628 549.663C179.799 549.663 176.694 552.783 176.694 556.63C176.694 560.478 179.799 563.597 183.628 563.597Z" fill="#DCE35B"/>
<path fill-rule="evenodd" clip-rule="evenodd" d="M157.876 499.899C157.876 498.579 158.398 497.314 159.327 496.381C160.255 495.447 161.515 494.923 162.828 494.923H204.429C205.08 494.923 205.724 495.051 206.325 495.301C206.926 495.551 207.472 495.918 207.932 496.38C208.392 496.842 208.757 497.391 209.006 497.995C209.255 498.598 209.383 499.246 209.383 499.899V512.838C209.383 513.102 209.278 513.354 209.093 513.541C208.907 513.727 208.656 513.832 208.393 513.832H206.415C206.153 513.832 205.901 513.727 205.716 513.541C205.53 513.354 205.426 513.102 205.426 512.838V499.899C205.426 499.769 205.4 499.639 205.35 499.519C205.301 499.398 205.228 499.289 205.136 499.196C205.044 499.104 204.935 499.031 204.815 498.981C204.695 498.931 204.566 498.905 204.437 498.905H162.836C162.573 498.905 162.322 499.01 162.136 499.196C161.951 499.383 161.846 499.635 161.846 499.899V512.838C161.846 513.102 161.742 513.354 161.557 513.541C161.371 513.727 161.119 513.832 160.857 513.832H158.879C158.616 513.832 158.365 513.727 158.179 513.541C157.994 513.354 157.889 513.102 157.889 512.838L157.876 499.899Z" fill="#3F3572"/>
<path d="M634.026 453.909L662.751 439.976H591.438L621.647 453.909V560.404H634.029L634.026 453.909Z" fill="#CDE3FE"/>
<path d="M648.388 583.793C654.406 583.793 659.284 578.891 659.284 572.845C659.284 566.798 654.406 561.896 648.388 561.896C642.37 561.896 637.492 566.798 637.492 572.845C637.492 578.891 642.37 583.793 648.388 583.793Z" fill="#B7D5FD"/>
<path d="M682.56 559.906H574.595C572.625 559.906 570.736 560.693 569.343 562.092C567.95 563.492 567.167 565.391 567.167 567.371V567.371C567.167 569.35 567.95 571.249 569.343 572.649C570.736 574.049 572.625 574.835 574.595 574.835H682.56C684.53 574.835 686.419 574.049 687.813 572.649C689.206 571.249 689.989 569.35 689.989 567.371V567.371C689.989 565.391 689.206 563.492 687.813 562.092C686.419 560.693 684.53 559.906 682.56 559.906V559.906Z" fill="#CDE3FE"/>
<path d="M684.046 583.793C690.064 583.793 694.942 578.891 694.942 572.845C694.942 566.798 690.064 561.896 684.046 561.896C678.029 561.896 673.15 566.798 673.15 572.845C673.15 578.891 678.029 583.793 684.046 583.793Z" fill="#B7D5FD"/>
<path d="M571.129 583.793C577.147 583.793 582.025 578.891 582.025 572.845C582.025 566.798 577.147 561.896 571.129 561.896C565.112 561.896 560.233 566.798 560.233 572.845C560.233 578.891 565.112 583.793 571.129 583.793Z" fill="#B7D5FD"/>
<path d="M708.96 270.883C707.452 256.953 700.294 250.946 696.904 249.684C702.68 285.395 714.762 361.892 716.868 382.184C719.505 407.547 689.742 422.69 672.787 422.69H520.96C520.96 432.911 528.874 442.375 543.565 442.375H679.574C719.886 442.375 725.925 411.841 724.784 396.947C723.654 382.183 710.848 288.297 708.96 270.883Z" fill="#DDEEFE"/>
<path d="M644.536 245.898H687.486C696.528 245.898 701.802 253.091 703.686 270.884C705.57 288.677 713.481 342.812 718.003 380.668C722.525 418.524 682.211 423.447 662.247 423.447H581.241C614.018 423.447 614.773 349.247 618.917 306.847C623.061 264.446 628.712 245.898 644.536 245.898Z" fill="#ECF6FF"/>
<path d="M568.838 535.531L576.545 555.818C576.903 556.761 577.074 557.765 577.046 558.774C577.018 559.783 576.792 560.776 576.382 561.697C575.972 562.618 575.385 563.449 574.655 564.142C573.925 564.835 573.067 565.377 572.128 565.737L525.574 583.594C524.551 583.988 523.423 584.008 522.387 583.652C521.35 583.295 520.471 582.584 519.903 581.643C519.335 580.701 519.114 579.59 519.279 578.501C519.443 577.413 519.982 576.417 520.803 575.688C531.324 566.38 555.155 550.572 553.207 539.779L568.838 535.531Z" fill="url(#paint15_linear)"/>
<path d="M572.128 565.737L525.574 583.594C524.919 583.852 524.214 583.958 523.512 583.902C522.81 583.847 522.13 583.633 521.523 583.275C520.916 582.917 520.397 582.426 520.007 581.838C519.616 581.25 519.363 580.58 519.267 579.879L577.001 557.733C577.183 559.42 576.804 561.121 575.924 562.568C575.043 564.016 573.71 565.13 572.133 565.737H572.128Z" fill="#1D164D"/>
<path d="M580.413 368.493L509.819 384.657C507.079 385.285 504.496 386.47 502.229 388.139C499.961 389.808 498.059 391.926 496.637 394.363C495.216 396.799 494.306 399.502 493.964 402.305C493.622 405.108 493.856 407.952 494.649 410.662L551.78 548.905C551.945 549.473 552.233 549.998 552.624 550.442C553.015 550.885 553.499 551.236 554.041 551.469C558.55 553.406 566.597 552.545 571.203 550.852C572.021 550.536 572.711 549.957 573.167 549.205C573.623 548.453 573.817 547.57 573.721 546.695L541.233 427.86L553.93 423.307L612.578 378.364L580.413 368.493Z" fill="url(#paint16_linear)"/>
<path d="M581.222 377.789C578.983 371.487 557.621 373.709 557.621 373.709L580.413 368.489L612.587 378.35L553.938 423.293L541.242 427.846C541.242 427.846 538.528 409.549 553.202 400.767C567.877 391.984 583.656 390.577 588.994 384.205C588.994 384.209 583.463 384.096 581.222 377.789Z" fill="url(#paint17_linear)"/>
<path d="M608.324 555.241V575.979C608.324 578.016 607.519 579.97 606.085 581.411C604.652 582.851 602.707 583.66 600.68 583.66H550.844C549.749 583.662 548.687 583.276 547.845 582.571C547.003 581.867 546.434 580.887 546.238 579.804C546.041 578.721 546.23 577.602 546.77 576.644C547.31 575.687 548.168 574.95 549.194 574.563C562.331 569.636 590.202 563.41 592.215 552.629L608.324 555.241Z" fill="url(#paint18_linear)"/>
<path d="M600.678 583.659H550.845C550.141 583.665 549.445 583.51 548.81 583.207C548.174 582.903 547.615 582.459 547.175 581.907C546.735 581.356 546.425 580.711 546.268 580.022C546.112 579.332 546.112 578.616 546.271 577.927H608.066C607.638 579.569 606.68 581.021 605.344 582.058C604.007 583.095 602.366 583.658 600.678 583.659Z" fill="#1D164D"/>
<path d="M684.657 382.96L683.778 388.818C682.456 397.634 678.569 405.86 672.607 412.462C666.644 419.064 658.872 423.747 650.267 425.922L601.456 438.264L609.239 554.057C609.121 554.564 608.899 555.042 608.588 555.459C608.277 555.877 607.883 556.225 607.431 556.481C604.618 558.074 597.13 559.787 590.331 555.803C589.769 555.478 589.299 555.014 588.966 554.454C588.634 553.895 588.449 553.259 588.431 552.607L553.943 424.005C553.831 419.196 555.05 414.45 557.463 410.295C559.876 406.141 563.39 402.741 567.612 400.474L609.863 377.793L684.657 382.96Z" fill="url(#paint19_linear)"/>
<path d="M625.415 398.085C625.66 387.485 623.101 381.673 620.573 378.527L684.659 382.955L683.781 388.813C682.34 398.42 677.855 407.304 670.992 414.146C668.957 410.15 665.339 408.246 658.922 406.375C642.558 401.618 624.928 418.579 625.415 398.085Z" fill="url(#paint20_linear)"/>
<path d="M603.14 376.124C603.14 376.124 623.957 382.228 638.524 379.788L640.302 231.208L614.609 232.185C614.609 232.185 599.433 256.338 599.681 294.154C599.928 331.969 599.807 369.775 603.14 376.124Z" fill="url(#paint21_linear)"/>
<path d="M622.378 244.266L633.407 254.59L640.303 231.208L614.609 232.184L610.517 248.699L622.378 244.266Z" fill="white"/>
<path d="M621.977 252.788L622.517 362.475L612.646 368.494L606.01 361.5L618.774 252.162L621.977 252.788Z" fill="url(#paint22_linear)"/>
<path d="M622.377 244.266L626.979 248.574L621.977 252.792C621.737 252.994 621.455 253.139 621.152 253.217C620.849 253.296 620.532 253.305 620.225 253.244C619.917 253.184 619.627 253.055 619.375 252.868C619.123 252.68 618.916 252.438 618.77 252.16L615.883 246.69L622.377 244.266Z" fill="url(#paint23_linear)"/>
<path d="M488.472 298.379L551.932 316.813C554.134 317.451 556.455 317.553 558.704 317.112C560.953 316.671 563.065 315.699 564.867 314.277L583.328 299.688C582.677 356.616 572.717 370.513 572.717 370.513C579.379 367.468 587.762 381.135 596.093 385.186L608.995 382.883C607.814 370.48 615.928 356.011 615.928 326.153L607.509 314.278C608.797 285.322 614.614 232.186 614.614 232.186L607.427 234.354C602.237 235.921 597.532 238.793 593.757 242.699L553.543 284.401L489.687 283.181L488.472 298.379Z" fill="url(#paint24_linear)"/>
<path d="M466.365 288.333C471.83 296.792 486.194 297.871 492.612 298.285C495.304 295.175 497.414 285.95 490.954 283.959C488.737 283.276 487.66 279.251 484.193 278.379C478.251 276.887 475.478 267.737 473.222 270.896C470.117 275.248 481.236 279.872 476.267 281.863C470.056 284.351 462.778 267.059 460.914 271.413C459.051 275.766 459.532 277.759 466.365 288.333Z" fill="url(#paint25_linear)"/>
<path d="M489.687 283.175L495.881 283.293L494.316 300.076L488.471 298.379L489.687 283.175Z" fill="#E4F1FD"/>
<path d="M594.941 262.438C602.347 261.95 605.808 258.046 605.808 258.046L598.584 255.114C606.03 246.258 610.866 237.147 612.451 232.832L613.135 232.625L614.444 232.1C613.135 244.541 611.968 255.114 609.987 276.887C609.301 284.418 608.009 302.267 607.511 314.206C605.034 278.379 594.941 262.438 594.941 262.438Z" fill="#6051AE"/>
<path d="M571.188 300.822C579.121 299.195 572.646 292.362 578.311 286.183C583.977 280.004 584.786 269.43 584.786 269.43C584.623 281.954 583.332 299.687 583.332 299.687L564.869 314.277C563.067 315.699 560.955 316.671 558.706 317.112C556.457 317.553 554.135 317.451 551.934 316.813C567.315 316.215 563.256 302.449 571.188 300.822Z" fill="url(#paint26_linear)"/>
<path d="M501.099 286.347L550.961 291.622L554.845 364.815L504.984 359.54L501.099 286.347Z" fill="url(#paint27_linear)"/>
<path d="M538.25 355.39C542.899 348.214 535.093 335.872 538.25 325.583C541.408 315.293 551.935 316.817 551.935 316.817L552.331 317.323L554.849 364.821L504.987 359.547C515.424 348.804 533.594 362.568 538.25 355.39Z" fill="url(#paint28_linear)"/>
<path d="M567.219 333.674V349.249C568.578 349.103 569.404 348.966 569.404 348.966L614.445 344.065C611.477 375.914 617.412 394.327 617.412 394.327C662.817 395.546 691.132 384.585 691.132 384.585C677.205 356.928 678.175 293.501 678.175 293.501L682.534 283.215C684.681 278.139 685.006 272.472 683.456 267.182C681.906 261.891 678.576 257.306 674.035 254.208L640.3 231.203C626.702 266.173 626.625 316.105 626.625 316.105L567.219 333.674Z" fill="url(#paint29_linear)"/>
<path d="M547.476 346.582C541.326 341.377 540.84 327.552 543.429 325.275C546.018 322.997 547.194 333.163 554.113 334.993C554.113 334.993 550.471 327.47 552.413 324.872C554.356 322.274 555.246 329.182 559.941 329.67C562.852 330.057 565.496 331.575 567.305 333.899V349.472C562.743 349.966 552.224 350.598 547.476 346.582Z" fill="url(#paint30_linear)"/>
<path d="M678.179 293.5L654.797 333.963C653.613 336.012 651.974 337.76 650.009 339.07C648.044 340.381 645.806 341.219 643.466 341.521L614.444 344.065C614.444 344.065 612.959 362.976 614.444 376.91C615.818 389.784 632.454 357.584 645.566 357.584C658.678 357.584 665.233 355.876 663.291 347.094C661.348 338.312 662.319 331.966 669.36 333.187C676.402 334.409 666.687 324.649 673.002 314.889C679.318 305.129 672.677 307.183 678.179 293.5Z" fill="url(#paint31_linear)"/>
<path d="M626.628 316.111C626.628 316.111 626.704 266.174 640.302 231.208L642.868 232.957C640.898 248.613 645.566 258.778 645.566 258.778L635.004 262.438L643.381 270.001L626.628 316.111Z" fill="#6051AE"/>
<path d="M589.818 165.977C588.71 178.669 601.981 187.247 608.293 193.469C619.379 199.691 632.014 217.68 636.235 216.175C651.588 210.701 656.045 195.772 658.027 185.82C659.433 178.75 650.495 177.984 646.029 175.962C647.876 167.096 642.796 160.096 630.788 162.43C618.78 164.764 613.836 162.711 608.293 159.448C602.75 156.185 591.204 150.112 589.818 165.977Z" fill="url(#paint32_linear)"/>
<path d="M640.305 231.208V210.064C640.305 210.064 648.848 207.909 649.086 200.224C649.325 192.539 636.946 194.491 636.946 202.175C636.946 202.175 630.269 197.174 633.789 184.244C633.789 184.244 615.216 193.393 603.075 184.244C603.075 184.244 603.804 206.689 605.018 216.69C606.232 226.691 614.609 224.74 614.609 224.74V232.182L622.378 244.266L640.305 231.208Z" fill="url(#paint33_linear)"/>
<path d="M608.999 203.323C609.609 203.301 610.061 202.04 610.007 200.506C609.954 198.972 609.415 197.746 608.805 197.767C608.194 197.789 607.743 199.05 607.796 200.584C607.85 202.118 608.388 203.345 608.999 203.323Z" fill="#151C58"/>
<path d="M622.266 202.855C622.877 202.833 623.328 201.572 623.275 200.038C623.221 198.504 622.683 197.278 622.072 197.299C621.462 197.321 621.01 198.582 621.064 200.116C621.118 201.65 621.656 202.877 622.266 202.855Z" fill="#151C58"/>
<path fill-rule="evenodd" clip-rule="evenodd" d="M608.233 193.374C607.424 193.596 606.708 194.078 606.197 194.746C606.14 194.819 606.058 194.866 605.967 194.877C605.876 194.889 605.784 194.864 605.712 194.807C605.639 194.751 605.592 194.668 605.581 194.576C605.569 194.485 605.594 194.393 605.651 194.32C606.259 193.524 607.113 192.952 608.079 192.694C608.755 192.558 609.456 192.619 610.099 192.868C610.742 193.117 611.302 193.546 611.712 194.102C611.773 194.171 611.804 194.261 611.799 194.353C611.794 194.445 611.753 194.531 611.684 194.593C611.616 194.654 611.526 194.686 611.435 194.68C611.343 194.675 611.258 194.634 611.197 194.565C610.868 194.102 610.414 193.744 609.889 193.533C609.364 193.322 608.789 193.267 608.233 193.374Z" fill="#7C4030"/>
<path fill-rule="evenodd" clip-rule="evenodd" d="M622.066 193.246C621.257 193.468 620.543 193.95 620.031 194.617C619.975 194.69 619.892 194.738 619.802 194.75C619.711 194.761 619.619 194.736 619.546 194.68C619.474 194.624 619.427 194.541 619.415 194.449C619.403 194.358 619.428 194.266 619.484 194.193C620.093 193.396 620.947 192.824 621.912 192.566C622.589 192.431 623.289 192.491 623.933 192.741C624.576 192.99 625.135 193.419 625.545 193.976C625.577 194.01 625.602 194.049 625.618 194.093C625.634 194.136 625.642 194.182 625.64 194.229C625.638 194.275 625.627 194.321 625.607 194.363C625.587 194.405 625.56 194.442 625.525 194.473C625.491 194.504 625.45 194.528 625.407 194.543C625.363 194.558 625.317 194.564 625.271 194.561C625.225 194.558 625.18 194.545 625.139 194.524C625.097 194.503 625.061 194.474 625.031 194.439C624.702 193.975 624.248 193.617 623.723 193.405C623.197 193.194 622.622 193.139 622.066 193.246V193.246Z" fill="#7C4030"/>
<path fill-rule="evenodd" clip-rule="evenodd" d="M614.805 199.08C614.844 199.087 614.882 199.101 614.916 199.123C614.95 199.145 614.979 199.173 615.002 199.207C615.025 199.24 615.041 199.277 615.049 199.317C615.058 199.356 615.058 199.397 615.051 199.436C614.711 201.334 613.933 205.436 611.957 208.158C611.84 208.297 611.766 208.466 611.742 208.645C611.74 208.692 611.749 208.738 611.767 208.78C611.785 208.823 611.812 208.861 611.846 208.892C612.169 209.127 612.558 209.254 612.958 209.253C613.503 209.295 614.052 209.25 614.584 209.121C614.81 209.067 615.03 208.987 615.238 208.883C615.378 208.818 615.501 208.722 615.598 208.601C615.646 208.537 615.717 208.494 615.795 208.482C615.874 208.469 615.955 208.488 616.02 208.534C616.085 208.581 616.13 208.65 616.144 208.729C616.159 208.808 616.143 208.889 616.099 208.956C615.946 209.157 615.748 209.319 615.521 209.43C615.27 209.556 615.005 209.653 614.732 209.718C614.135 209.864 613.518 209.914 612.906 209.866C612.361 209.859 611.835 209.668 611.412 209.324C611.318 209.233 611.245 209.123 611.196 209.002C611.147 208.881 611.125 208.751 611.13 208.62C611.156 208.317 611.272 208.029 611.461 207.792C613.342 205.202 614.103 201.244 614.449 199.324C614.456 199.285 614.471 199.247 614.493 199.213C614.515 199.18 614.543 199.15 614.576 199.128C614.609 199.105 614.647 199.089 614.686 199.081C614.725 199.072 614.765 199.072 614.805 199.08Z" fill="#F4AC94"/>
<path fill-rule="evenodd" clip-rule="evenodd" d="M621.639 212.021C621.681 212.04 621.718 212.067 621.749 212.1C621.78 212.134 621.804 212.173 621.82 212.216C621.835 212.258 621.843 212.304 621.841 212.349C621.84 212.395 621.829 212.44 621.81 212.481C621.567 213.073 621.2 213.604 620.735 214.041C620.27 214.478 619.716 214.808 619.112 215.011C618.267 215.284 617.361 215.304 616.504 215.071C616.42 215.042 616.35 214.981 616.309 214.902C616.268 214.822 616.259 214.73 616.285 214.644C616.31 214.558 616.367 214.485 616.444 214.44C616.522 214.396 616.613 214.383 616.7 214.404C617.424 214.598 618.188 214.58 618.902 214.351C619.415 214.178 619.884 213.896 620.278 213.524C620.672 213.152 620.982 212.699 621.185 212.196C621.223 212.112 621.292 212.048 621.377 212.015C621.462 211.982 621.556 211.985 621.639 212.021V212.021Z" fill="#D74848"/>
<path d="M614.609 224.743C614.609 224.743 625.17 224.256 631.362 217.668C631.362 217.668 626.506 230.109 614.609 230.109V224.743Z" fill="#1D164D"/>
</g>
<defs>
<linearGradient id="paint0_linear" x1="0" y1="92.283" x2="440.373" y2="811.641" gradientUnits="userSpaceOnUse">
<stop stop-color="#F7ECFF"/>
<stop offset="1" stop-color="#D9C5ED"/>
</linearGradient>
<linearGradient id="paint1_linear" x1="775.622" y1="219.08" x2="775.622" y2="74.8532" gradientUnits="userSpaceOnUse">
<stop stop-color="#A7DF63"/>
<stop offset="1" stop-color="#6BBC61"/>
</linearGradient>
<linearGradient id="paint2_linear" x1="745.048" y1="88.3043" x2="764.703" y2="-12.1835" gradientUnits="userSpaceOnUse">
<stop stop-color="#CCE7FF"/>
<stop offset="1" stop-color="#A7C8DF"/>
</linearGradient>
<linearGradient id="paint3_linear" x1="249.373" y1="380.96" x2="357.936" y2="336.161" gradientUnits="userSpaceOnUse">
<stop stop-color="#FFD6C7"/>
<stop offset="1" stop-color="#FFD0C1"/>
</linearGradient>
<linearGradient id="paint4_linear" x1="215.705" y1="180.295" x2="149.259" y2="164.589" gradientUnits="userSpaceOnUse">
<stop stop-color="#FFD6C7"/>
<stop offset="1" stop-color="#FFD0C1"/>
</linearGradient>
<linearGradient id="paint5_linear" x1="264.015" y1="382.833" x2="250.668" y2="63.1719" gradientUnits="userSpaceOnUse">
<stop stop-color="#F762A4"/>
<stop offset="1" stop-color="#CF4B97"/>
</linearGradient>
<linearGradient id="paint6_linear" x1="314.91" y1="258.577" x2="286.146" y2="258.225" gradientUnits="userSpaceOnUse">
<stop stop-color="#38258B" stop-opacity="0"/>
<stop offset="1" stop-color="#38258B"/>
</linearGradient>
<linearGradient id="paint7_linear" x1="249.24" y1="265.372" x2="228.409" y2="265.104" gradientUnits="userSpaceOnUse">
<stop stop-color="#38258B" stop-opacity="0"/>
<stop offset="1" stop-color="#38258B"/>
</linearGradient>
<linearGradient id="paint8_linear" x1="463.042" y1="185.225" x2="143.219" y2="87.2229" gradientUnits="userSpaceOnUse">
<stop stop-color="#FFD6C7"/>
<stop offset="1" stop-color="#FFD0C1"/>
</linearGradient>
<linearGradient id="paint9_linear" x1="308.446" y1="258.794" x2="304.475" y2="144.32" gradientUnits="userSpaceOnUse">
<stop stop-color="#FFE3AA"/>
<stop offset="1" stop-color="#EDC167"/>
</linearGradient>
<linearGradient id="paint10_linear" x1="423.627" y1="293.291" x2="423.627" y2="256.79" gradientUnits="userSpaceOnUse">
<stop stop-color="#A7DF63"/>
<stop offset="1" stop-color="#6BBC61"/>
</linearGradient>
<linearGradient id="paint11_linear" x1="421.391" y1="280.251" x2="421.391" y2="247.501" gradientUnits="userSpaceOnUse">
<stop stop-color="#A7DF63"/>
<stop offset="1" stop-color="#6BBC61"/>
</linearGradient>
<linearGradient id="paint12_linear" x1="428.318" y1="293.072" x2="428.318" y2="256.661" gradientUnits="userSpaceOnUse">
<stop stop-color="#A7DF63"/>
<stop offset="1" stop-color="#6BBC61"/>
</linearGradient>
<linearGradient id="paint13_linear" x1="434.037" y1="284.693" x2="434.037" y2="250.599" gradientUnits="userSpaceOnUse">
<stop stop-color="#A7DF63"/>
<stop offset="1" stop-color="#6BBC61"/>
</linearGradient>
<linearGradient id="paint14_linear" x1="172.684" y1="80.7004" x2="179.318" y2="-15.4167" gradientUnits="userSpaceOnUse">
<stop stop-color="#7B479C"/>
<stop offset="1" stop-color="#331351"/>
</linearGradient>
<linearGradient id="paint15_linear" x1="554.093" y1="6.36468" x2="541.133" y2="40.7115" gradientUnits="userSpaceOnUse">
<stop stop-color="#1D164D"/>
<stop offset="1" stop-color="#4A4975"/>
</linearGradient>
<linearGradient id="paint16_linear" x1="581.224" y1="154.957" x2="366.443" y2="71.6141" gradientUnits="userSpaceOnUse">
<stop stop-color="#3E3570"/>
<stop offset="1" stop-color="#151535"/>
</linearGradient>
<linearGradient id="paint17_linear" x1="623.819" y1="161.808" x2="543.598" y2="206.601" gradientUnits="userSpaceOnUse">
<stop stop-color="#4099F1"/>
<stop offset="1" stop-color="#4099F1" stop-opacity="0"/>
</linearGradient>
<linearGradient id="paint18_linear" x1="582.465" y1="-16.8256" x2="580.97" y2="20.4053" gradientUnits="userSpaceOnUse">
<stop stop-color="#1D164D"/>
<stop offset="1" stop-color="#4A4975"/>
</linearGradient>
<linearGradient id="paint19_linear" x1="638.12" y1="159.799" x2="427.035" y2="40.705" gradientUnits="userSpaceOnUse">
<stop stop-color="#3F3572"/>
<stop offset="1" stop-color="#151535"/>
</linearGradient>
<linearGradient id="paint20_linear" x1="647.553" y1="241.68" x2="651.249" y2="148.282" gradientUnits="userSpaceOnUse">
<stop stop-color="#3E3570"/>
<stop offset="1" stop-color="#4099F1" stop-opacity="0"/>
</linearGradient>
<linearGradient id="paint21_linear" x1="684.989" y1="262.382" x2="598.768" y2="264.094" gradientUnits="userSpaceOnUse">
<stop stop-color="#C9E2F4"/>
<stop offset="1" stop-color="#EAF5FF"/>
</linearGradient>
<linearGradient id="paint22_linear" x1="585.921" y1="283.339" x2="651.265" y2="282.878" gradientUnits="userSpaceOnUse">
<stop stop-color="#C7283A"/>
<stop offset="1" stop-color="#EF4B4B"/>
</linearGradient>
<linearGradient id="paint23_linear" x1="621.242" y1="340.233" x2="621.594" y2="326.314" gradientUnits="userSpaceOnUse">
<stop stop-color="#C7283A"/>
<stop offset="1" stop-color="#EF4B4B"/>
</linearGradient>
<linearGradient id="paint24_linear" x1="587.761" y1="295.069" x2="409.398" y2="149.73" gradientUnits="userSpaceOnUse">
<stop stop-color="#3F3572"/>
<stop offset="1" stop-color="#1D164D"/>
</linearGradient>
<linearGradient id="paint25_linear" x1="476.046" y1="313.544" x2="478.913" y2="274.939" gradientUnits="userSpaceOnUse">
<stop stop-color="#FFC0AC"/>
<stop offset="1" stop-color="#FFD6C7"/>
</linearGradient>
<linearGradient id="paint26_linear" x1="599.044" y1="269.766" x2="559.166" y2="282.018" gradientUnits="userSpaceOnUse">
<stop stop-color="#3F3572"/>
<stop offset="1" stop-color="#3F3572"/>
</linearGradient>
<linearGradient id="paint27_linear" x1="554.2" y1="190.537" x2="493.96" y2="262.515" gradientUnits="userSpaceOnUse">
<stop stop-color="#C9E2F4"/>
<stop offset="1" stop-color="#EAF5FF"/>
</linearGradient>
<linearGradient id="paint28_linear" x1="553.652" y1="215.089" x2="513.768" y2="265.65" gradientUnits="userSpaceOnUse">
<stop stop-color="#C9E2F4"/>
<stop offset="1" stop-color="#C9E2F4" stop-opacity="0"/>
</linearGradient>
<linearGradient id="paint29_linear" x1="673.661" y1="283.596" x2="475.97" y2="161.037" gradientUnits="userSpaceOnUse">
<stop stop-color="#413776"/>
<stop offset="1" stop-color="#281535"/>
</linearGradient>
<linearGradient id="paint30_linear" x1="567.305" y1="245.915" x2="541.949" y2="245.915" gradientUnits="userSpaceOnUse">
<stop stop-color="#FFC0AC"/>
<stop offset="1" stop-color="#FFD6C7"/>
</linearGradient>
<linearGradient id="paint31_linear" x1="630.462" y1="269.38" x2="671.695" y2="237.166" gradientUnits="userSpaceOnUse">
<stop stop-color="#3F3572"/>
<stop offset="1" stop-color="#3E3570"/>
</linearGradient>
<linearGradient id="paint32_linear" x1="602.343" y1="444.105" x2="639.074" y2="360.632" gradientUnits="userSpaceOnUse">
<stop stop-color="#4A4975"/>
<stop offset="1" stop-color="#1D164D"/>
</linearGradient>
<linearGradient id="paint33_linear" x1="648.906" y1="346.063" x2="601.147" y2="379.549" gradientUnits="userSpaceOnUse">
<stop stop-color="#FFC0AC"/>
<stop offset="1" stop-color="#FFD6C7"/>
</linearGradient>
<clipPath id="clip0">
<rect width="816" height="584" fill="white"/>
</clipPath>
</defs>
</svg>
