<svg width="171" height="43" viewBox="0 0 171 43" fill="none" xmlns="http://www.w3.org/2000/svg">
<path d="M50.4246 7.02594H54.0294C55.6069 7.02594 56.7839 7.32789 57.5603 7.93178C58.3368 8.52335 58.725 9.54627 58.725 11.0005C58.725 11.9495 58.5833 12.7259 58.2998 13.3298C58.0287 13.9214 57.5542 14.3528 56.8763 14.6239L58.9653 22H56.2293L54.4361 15.1415H53.1421V22H50.4246V7.02594ZM54.0109 13.4408C54.7874 13.4408 55.3358 13.2621 55.6562 12.9046C55.989 12.5472 56.1554 11.9618 56.1554 11.1484C56.1554 10.3597 56.0075 9.78659 55.7117 9.42919C55.4282 9.07178 54.9106 8.89308 54.1588 8.89308H53.1421V13.4408H54.0109ZM63.8558 22.1664C62.6727 22.1664 61.8038 21.8398 61.2493 21.1866C60.6947 20.5211 60.4174 19.5413 60.4174 18.2472V15.0676C60.4174 13.7612 60.6947 12.7814 61.2493 12.1282C61.8162 11.475 62.685 11.1484 63.8558 11.1484C65.0636 11.1484 65.914 11.4874 66.407 12.1652C66.9123 12.843 67.1649 13.8659 67.1649 15.2339V16.7683H62.913V18.8758C62.913 19.3934 62.987 19.7693 63.1349 20.0035C63.2951 20.2376 63.5416 20.3547 63.8743 20.3547C64.1948 20.3547 64.4228 20.2438 64.5583 20.0219C64.7062 19.7878 64.7802 19.4365 64.7802 18.9682V18.0624H67.1464V18.8018C67.1464 19.8987 66.8691 20.7368 66.3146 21.316C65.76 21.8829 64.9404 22.1664 63.8558 22.1664ZM64.7802 15.5297V14.513C64.7802 13.9584 64.7124 13.564 64.5768 13.3298C64.4413 13.0834 64.2009 12.9601 63.8558 12.9601C63.4984 12.9601 63.252 13.0895 63.1164 13.3483C62.9808 13.6071 62.913 14.0878 62.913 14.7903V15.5297H64.7802ZM68.871 11.3148H71.2928V12.2576C72.0076 11.5058 72.8456 11.1299 73.8069 11.1299C74.2383 11.1299 74.608 11.2409 74.9161 11.4627C75.2242 11.6722 75.4522 11.9926 75.6001 12.424C76.3396 11.5613 77.2392 11.1299 78.2991 11.1299C78.8907 11.1299 79.3652 11.3456 79.7226 11.777C80.0923 12.2083 80.2772 12.8307 80.2772 13.6441V22H77.8739V13.8844C77.8739 13.4901 77.8062 13.2128 77.6706 13.0525C77.5474 12.8923 77.3563 12.8122 77.0975 12.8122C76.9003 12.8122 76.6785 12.8677 76.432 12.9786C76.1978 13.0895 75.9822 13.2436 75.785 13.4408V13.6441V22H73.4002V13.8844C73.4002 13.4901 73.3324 13.2128 73.1969 13.0525C73.0613 12.8923 72.8641 12.8122 72.6053 12.8122C72.4081 12.8122 72.1924 12.8677 71.9583 12.9786C71.7241 13.0895 71.5023 13.2436 71.2928 13.4408V22H68.871V11.3148ZM85.3753 22.1664C84.2291 22.1664 83.3726 21.8521 82.8057 21.2236C82.2387 20.5827 81.9553 19.6584 81.9553 18.4506V14.8642C81.9553 13.6564 82.2387 12.7383 82.8057 12.1097C83.3726 11.4689 84.2291 11.1484 85.3753 11.1484C86.5214 11.1484 87.378 11.4689 87.9449 12.1097C88.5241 12.7383 88.8138 13.6564 88.8138 14.8642V18.4506C88.8138 19.6584 88.5241 20.5827 87.9449 21.2236C87.378 21.8521 86.5214 22.1664 85.3753 22.1664ZM85.3938 20.4286C85.7758 20.4286 86.0285 20.2808 86.1517 19.985C86.275 19.6769 86.3366 19.227 86.3366 18.6355V14.6978C86.3366 14.1063 86.275 13.6564 86.1517 13.3483C86.0285 13.0402 85.7758 12.8862 85.3938 12.8862C84.9994 12.8862 84.7406 13.0402 84.6173 13.3483C84.4941 13.6564 84.4325 14.1063 84.4325 14.6978V18.6355C84.4325 19.227 84.4941 19.6769 84.6173 19.985C84.7406 20.2808 84.9994 20.4286 85.3938 20.4286ZM93.6402 22.1294C92.6666 22.1294 91.9764 21.8952 91.5697 21.4269C91.1753 20.9586 90.9781 20.2623 90.9781 19.3379V12.9601H89.9059V11.3148H90.9781V8.11665H93.5108V11.3148H95.1191V12.9601H93.5108V19.1161C93.5108 19.4735 93.5847 19.7323 93.7326 19.8925C93.8928 20.0528 94.1393 20.1329 94.4721 20.1329C94.7802 20.1329 95.039 20.1082 95.2485 20.0589V22C94.7555 22.0863 94.2194 22.1294 93.6402 22.1294ZM96.8574 7.02594H103.143V8.94854H99.5749V13.2559H102.385V15.16H99.5749V20.1329H103.18V22H96.8574V7.02594ZM104.598 11.3148H107.02V12.2576C107.735 11.5058 108.573 11.1299 109.534 11.1299C109.966 11.1299 110.335 11.2409 110.643 11.4627C110.952 11.6722 111.18 11.9926 111.327 12.424C112.067 11.5613 112.967 11.1299 114.026 11.1299C114.618 11.1299 115.092 11.3456 115.45 11.777C115.82 12.2083 116.004 12.8307 116.004 13.6441V22H113.601V13.8844C113.601 13.4901 113.533 13.2128 113.398 13.0525C113.275 12.8923 113.084 12.8122 112.825 12.8122C112.628 12.8122 112.406 12.8677 112.159 12.9786C111.925 13.0895 111.709 13.2436 111.512 13.4408V13.6441V22H109.128V13.8844C109.128 13.4901 109.06 13.2128 108.924 13.0525C108.789 12.8923 108.591 12.8122 108.333 12.8122C108.135 12.8122 107.92 12.8677 107.686 12.9786C107.451 13.0895 107.23 13.2436 107.02 13.4408V22H104.598V11.3148ZM117.867 11.3148H120.382V12.1282C121.059 11.475 121.787 11.1484 122.563 11.1484C123.426 11.1484 124.036 11.5058 124.393 12.2206C124.751 12.9355 124.929 13.7674 124.929 14.7163V18.3397C124.929 19.4858 124.726 20.4102 124.319 21.1126C123.925 21.8151 123.296 22.1664 122.434 22.1664C121.743 22.1664 121.059 21.8459 120.382 21.2051V25.5124H117.867V11.3148ZM121.491 20.4102C121.848 20.4102 122.089 20.2376 122.212 19.8925C122.347 19.5475 122.415 19.0606 122.415 18.4321V14.5869C122.415 14.0323 122.347 13.601 122.212 13.2929C122.076 12.9848 121.83 12.8307 121.472 12.8307C121.103 12.8307 120.739 12.9848 120.382 13.2929V20.0404C120.727 20.2869 121.096 20.4102 121.491 20.4102ZM126.826 7.02594H129.321V22H126.826V7.02594ZM134.552 22.1664C133.406 22.1664 132.55 21.8521 131.983 21.2236C131.416 20.5827 131.132 19.6584 131.132 18.4506V14.8642C131.132 13.6564 131.416 12.7383 131.983 12.1097C132.55 11.4689 133.406 11.1484 134.552 11.1484C135.698 11.1484 136.555 11.4689 137.122 12.1097C137.701 12.7383 137.991 13.6564 137.991 14.8642V18.4506C137.991 19.6584 137.701 20.5827 137.122 21.2236C136.555 21.8521 135.698 22.1664 134.552 22.1664ZM134.571 20.4286C134.953 20.4286 135.205 20.2808 135.329 19.985C135.452 19.6769 135.514 19.227 135.514 18.6355V14.6978C135.514 14.1063 135.452 13.6564 135.329 13.3483C135.205 13.0402 134.953 12.8862 134.571 12.8862C134.176 12.8862 133.918 13.0402 133.794 13.3483C133.671 13.6564 133.609 14.1063 133.609 14.6978V18.6355C133.609 19.227 133.671 19.6769 133.794 19.985C133.918 20.2808 134.176 20.4286 134.571 20.4286ZM139.804 23.0907C140.469 23.0907 140.938 23.0291 141.209 22.9058C141.492 22.7949 141.634 22.5731 141.634 22.2403C141.634 22.0185 141.505 21.3899 141.246 20.3547L138.898 11.3148H141.338L142.725 18.3766L143.926 11.3148H146.348L143.852 22.4252C143.643 23.3249 143.242 23.9596 142.651 24.3293C142.072 24.7114 141.283 24.9024 140.284 24.9024H139.804V23.0907ZM150.746 22.1664C149.563 22.1664 148.694 21.8398 148.139 21.1866C147.585 20.5211 147.307 19.5413 147.307 18.2472V15.0676C147.307 13.7612 147.585 12.7814 148.139 12.1282C148.706 11.475 149.575 11.1484 150.746 11.1484C151.954 11.1484 152.804 11.4874 153.297 12.1652C153.802 12.843 154.055 13.8659 154.055 15.2339V16.7683H149.803V18.8758C149.803 19.3934 149.877 19.7693 150.025 20.0035C150.185 20.2376 150.432 20.3547 150.764 20.3547C151.085 20.3547 151.313 20.2438 151.448 20.0219C151.596 19.7878 151.67 19.4365 151.67 18.9682V18.0624H154.037V18.8018C154.037 19.8987 153.759 20.7368 153.205 21.316C152.65 21.8829 151.83 22.1664 150.746 22.1664ZM151.67 15.5297V14.513C151.67 13.9584 151.602 13.564 151.467 13.3298C151.331 13.0834 151.091 12.9601 150.746 12.9601C150.389 12.9601 150.142 13.0895 150.006 13.3483C149.871 13.6071 149.803 14.0878 149.803 14.7903V15.5297H151.67ZM158.996 22.1664C157.813 22.1664 156.944 21.8398 156.39 21.1866C155.835 20.5211 155.558 19.5413 155.558 18.2472V15.0676C155.558 13.7612 155.835 12.7814 156.39 12.1282C156.957 11.475 157.825 11.1484 158.996 11.1484C160.204 11.1484 161.054 11.4874 161.547 12.1652C162.053 12.843 162.305 13.8659 162.305 15.2339V16.7683H158.053V18.8758C158.053 19.3934 158.127 19.7693 158.275 20.0035C158.436 20.2376 158.682 20.3547 159.015 20.3547C159.335 20.3547 159.563 20.2438 159.699 20.0219C159.847 19.7878 159.921 19.4365 159.921 18.9682V18.0624H162.287V18.8018C162.287 19.8987 162.01 20.7368 161.455 21.316C160.9 21.8829 160.081 22.1664 158.996 22.1664ZM159.921 15.5297V14.513C159.921 13.9584 159.853 13.564 159.717 13.3298C159.582 13.0834 159.341 12.9601 158.996 12.9601C158.639 12.9601 158.392 13.0895 158.257 13.3483C158.121 13.6071 158.053 14.0878 158.053 14.7903V15.5297H159.921ZM166.914 22.1664C166.014 22.1664 165.275 21.9261 164.695 21.4454C164.116 20.9648 163.703 20.2623 163.457 19.3379L165.324 18.617C165.607 19.8124 166.125 20.4102 166.877 20.4102C167.16 20.4102 167.376 20.3362 167.524 20.1883C167.684 20.0404 167.764 19.8371 167.764 19.5783C167.764 19.2948 167.678 19.036 167.505 18.8018C167.333 18.5554 167.025 18.2472 166.581 17.8775L165.305 16.7683C164.763 16.3246 164.363 15.8933 164.104 15.4743C163.845 15.0552 163.716 14.5438 163.716 13.9399C163.716 13.1018 163.999 12.4302 164.566 11.9249C165.145 11.4072 165.872 11.1484 166.747 11.1484C167.585 11.1484 168.269 11.4011 168.799 11.9064C169.329 12.3994 169.674 13.071 169.835 13.9214L168.189 14.6239C168.091 14.1309 167.924 13.7304 167.69 13.4223C167.468 13.1018 167.179 12.9416 166.821 12.9416C166.563 12.9416 166.353 13.0217 166.193 13.1819C166.045 13.3422 165.971 13.5455 165.971 13.792C165.971 13.9892 166.057 14.1987 166.23 14.4205C166.402 14.6424 166.661 14.9012 167.006 15.197L168.3 16.3801C168.855 16.8608 169.28 17.3229 169.576 17.7666C169.884 18.1979 170.038 18.7217 170.038 19.3379C170.038 20.2376 169.742 20.9339 169.151 21.4269C168.571 21.9199 167.826 22.1664 166.914 22.1664Z" fill="white"/>
<path d="M52.393 38.9595H51.8507V31.7668H49.3495V31.2613H54.8941V31.7668H52.393V38.9595ZM59.9016 38.9595V35.2473C59.9016 34.6716 59.7805 34.2539 59.5383 33.9941C59.2961 33.7308 58.9205 33.5992 58.4115 33.5992C57.727 33.5992 57.225 33.7729 56.9056 34.1205C56.5896 34.4645 56.4317 35.0244 56.4317 35.8002V38.9595H55.9104V30.7663H56.4317V33.3728L56.4053 34.1047H56.4422C56.6563 33.7606 56.9266 33.5114 57.2531 33.357C57.5795 33.2025 57.985 33.1253 58.4694 33.1253C59.7682 33.1253 60.4177 33.8221 60.4177 35.2157V38.9595H59.9016ZM64.5827 39.0648C63.7507 39.0648 63.1013 38.8085 62.6344 38.296C62.1711 37.7835 61.9394 37.0656 61.9394 36.1424C61.9394 35.2297 62.164 34.4996 62.6134 33.952C63.0627 33.4008 63.6682 33.1253 64.43 33.1253C65.104 33.1253 65.6358 33.3605 66.0254 33.8309C66.4151 34.3012 66.6099 34.9401 66.6099 35.7475V36.1687H62.487C62.494 36.9551 62.6766 37.5553 63.0346 37.9696C63.3962 38.3838 63.9122 38.5909 64.5827 38.5909C64.9091 38.5909 65.1952 38.5681 65.441 38.5224C65.6902 38.4768 66.0044 38.3785 66.3835 38.2276V38.7015C66.0605 38.8419 65.7622 38.9367 65.4883 38.9858C65.2145 39.0385 64.9127 39.0648 64.5827 39.0648ZM64.43 33.5886C63.8789 33.5886 63.4365 33.7712 63.1031 34.1363C62.7696 34.4978 62.5748 35.0209 62.5186 35.7054H66.057C66.057 35.0419 65.9131 34.5242 65.6253 34.1521C65.3374 33.7764 64.939 33.5886 64.43 33.5886ZM75.7245 36.0898C75.7245 37.0235 75.4981 37.7537 75.0453 38.2802C74.5924 38.8033 73.9676 39.0648 73.1707 39.0648C72.6688 39.0648 72.2265 38.9437 71.8438 38.7015C71.4612 38.4592 71.1681 38.1117 70.9645 37.6589C70.7609 37.2061 70.6591 36.683 70.6591 36.0898C70.6591 35.156 70.8855 34.4294 71.3383 33.9098C71.7912 33.3868 72.4125 33.1253 73.2023 33.1253C73.9887 33.1253 74.6047 33.3903 75.0505 33.9204C75.4999 34.4469 75.7245 35.1701 75.7245 36.0898ZM71.2067 36.0898C71.2067 36.8761 71.3787 37.4904 71.7227 37.9327C72.0702 38.3715 72.5599 38.5909 73.1918 38.5909C73.8237 38.5909 74.3116 38.3715 74.6556 37.9327C75.0031 37.4904 75.1769 36.8761 75.1769 36.0898C75.1769 35.2999 75.0014 34.6874 74.6504 34.2521C74.3028 33.8168 73.8131 33.5992 73.1813 33.5992C72.5494 33.5992 72.0615 33.8168 71.7175 34.2521C71.377 34.6839 71.2067 35.2964 71.2067 36.0898ZM77.7623 33.2359V36.9428C77.7623 37.5185 77.8834 37.938 78.1256 38.2012C78.3678 38.461 78.7434 38.5909 79.2524 38.5909C79.9334 38.5909 80.4336 38.4189 80.7531 38.0749C81.076 37.7309 81.2375 37.171 81.2375 36.3952V33.2359H81.7535V38.9595H81.3112L81.2165 38.1696H81.1849C80.8128 38.7664 80.1511 39.0648 79.1998 39.0648C77.8974 39.0648 77.2463 38.368 77.2463 36.9744V33.2359H77.7623ZM85.1814 38.6014C85.5114 38.6014 85.7992 38.5733 86.0449 38.5172V38.9384C85.7922 39.0227 85.5008 39.0648 85.1709 39.0648C84.6654 39.0648 84.2915 38.9296 84.0493 38.6593C83.8106 38.389 83.6912 37.9643 83.6912 37.3851V33.6887H82.8435V33.3833L83.6912 33.1463L83.9545 31.851H84.2231V33.2359H85.9028V33.6887H84.2231V37.3114C84.2231 37.7502 84.3003 38.0749 84.4547 38.2855C84.6092 38.4961 84.8514 38.6014 85.1814 38.6014ZM90.8313 37.4693C90.8313 37.9818 90.6365 38.3768 90.2468 38.6541C89.8572 38.9279 89.3043 39.0648 88.5882 39.0648C87.8229 39.0648 87.2156 38.9472 86.7663 38.712V38.1486C87.342 38.4364 87.9493 38.5804 88.5882 38.5804C89.1533 38.5804 89.5816 38.4873 89.873 38.3013C90.1678 38.1117 90.3153 37.8607 90.3153 37.5483C90.3153 37.2605 90.1977 37.0183 89.9625 36.8217C89.7308 36.6251 89.3482 36.432 88.8146 36.2425C88.2424 36.0354 87.8405 35.8581 87.6088 35.7106C87.3771 35.5597 87.2016 35.3912 87.0822 35.2052C86.9664 35.0156 86.9085 34.7857 86.9085 34.5154C86.9085 34.0871 87.0875 33.7484 87.4456 33.4991C87.8071 33.2499 88.3109 33.1253 88.9568 33.1253C89.5746 33.1253 90.1608 33.2411 90.7155 33.4728L90.5206 33.9467C89.959 33.715 89.4377 33.5992 88.9568 33.5992C88.4899 33.5992 88.1196 33.6764 87.8457 33.8309C87.5719 33.9853 87.435 34.1994 87.435 34.4733C87.435 34.7716 87.5403 35.0103 87.751 35.1894C87.9651 35.3684 88.3811 35.5685 88.9989 35.7896C89.5149 35.9757 89.8905 36.1442 90.1257 36.2951C90.3609 36.4426 90.5364 36.6111 90.6523 36.8006C90.7716 36.9902 90.8313 37.2131 90.8313 37.4693ZM93.8168 38.6014C94.1468 38.6014 94.4347 38.5733 94.6804 38.5172V38.9384C94.4276 39.0227 94.1363 39.0648 93.8063 39.0648C93.3008 39.0648 92.927 38.9296 92.6848 38.6593C92.4461 38.389 92.3267 37.9643 92.3267 37.3851V33.6887H91.479V33.3833L92.3267 33.1463L92.59 31.851H92.8585V33.2359H94.5382V33.6887H92.8585V37.3114C92.8585 37.7502 92.9357 38.0749 93.0902 38.2855C93.2447 38.4961 93.4869 38.6014 93.8168 38.6014ZM99.393 38.9595L99.2614 38.0538H99.2193C98.9314 38.4224 98.6348 38.6839 98.3294 38.8384C98.0275 38.9893 97.6694 39.0648 97.2552 39.0648C96.6936 39.0648 96.2565 38.9209 95.9441 38.633C95.6317 38.3452 95.4755 37.9467 95.4755 37.4377C95.4755 36.8796 95.7072 36.4461 96.1705 36.1372C96.6374 35.8282 97.3114 35.665 98.1925 35.6475L99.2825 35.6159V35.2368C99.2825 34.6926 99.1719 34.2819 98.9507 34.0046C98.7296 33.7273 98.3733 33.5886 97.8818 33.5886C97.3518 33.5886 96.8024 33.7361 96.2337 34.0309L96.0389 33.5781C96.6672 33.2832 97.2886 33.1358 97.9029 33.1358C98.5312 33.1358 98.9999 33.299 99.3088 33.6255C99.6212 33.952 99.7774 34.461 99.7774 35.1525V38.9595H99.393ZM97.2868 38.5909C97.8976 38.5909 98.3785 38.4171 98.7296 38.0696C99.0841 37.7186 99.2614 37.2324 99.2614 36.6111V36.0476L98.2609 36.0898C97.4571 36.1284 96.8831 36.2548 96.5391 36.4689C96.1986 36.6795 96.0284 37.0095 96.0284 37.4588C96.0284 37.8169 96.1372 38.0959 96.3548 38.296C96.576 38.4926 96.8866 38.5909 97.2868 38.5909ZM103.763 33.6887H102.415V38.9595H101.894V33.6887H100.831V33.3833L101.894 33.1885V32.7462C101.894 32.0441 102.022 31.5298 102.279 31.2034C102.538 30.8734 102.961 30.7084 103.548 30.7084C103.863 30.7084 104.179 30.7558 104.495 30.8506L104.374 31.3034C104.093 31.2156 103.814 31.1718 103.537 31.1718C103.13 31.1718 102.84 31.2929 102.668 31.5351C102.5 31.7738 102.415 32.1634 102.415 32.704V33.2359H103.763V33.6887ZM106.996 33.6887H105.648V38.9595H105.127V33.6887H104.064V33.3833L105.127 33.1885V32.7462C105.127 32.0441 105.255 31.5298 105.512 31.2034C105.771 30.8734 106.194 30.7084 106.781 30.7084C107.096 30.7084 107.412 30.7558 107.728 30.8506L107.607 31.3034C107.326 31.2156 107.047 31.1718 106.77 31.1718C106.363 31.1718 106.073 31.2929 105.901 31.5351C105.733 31.7738 105.648 32.1634 105.648 32.704V33.2359H106.996V33.6887ZM108.629 38.9595H108.107V33.2359H108.629V38.9595ZM108.034 31.6457C108.034 31.3087 108.144 31.1402 108.365 31.1402C108.474 31.1402 108.559 31.1841 108.618 31.2718C108.681 31.3596 108.713 31.4842 108.713 31.6457C108.713 31.8036 108.681 31.9282 108.618 32.0195C108.559 32.1108 108.474 32.1564 108.365 32.1564C108.144 32.1564 108.034 31.9862 108.034 31.6457ZM114.537 38.9595V35.2473C114.537 34.6716 114.416 34.2539 114.173 33.9941C113.931 33.7308 113.556 33.5992 113.047 33.5992C112.362 33.5992 111.86 33.7729 111.541 34.1205C111.225 34.4645 111.067 35.0244 111.067 35.8002V38.9595H110.545V33.2359H110.988L111.088 34.0204H111.119C111.491 33.4237 112.153 33.1253 113.104 33.1253C114.403 33.1253 115.053 33.8221 115.053 35.2157V38.9595H114.537ZM121.371 33.2359V33.5992L120.187 33.6729C120.502 34.066 120.66 34.4978 120.66 34.9682C120.66 35.5193 120.476 35.9669 120.108 36.3109C119.743 36.6514 119.251 36.8217 118.633 36.8217C118.373 36.8217 118.191 36.8111 118.086 36.7901C117.879 36.8989 117.721 37.027 117.612 37.1745C117.503 37.3219 117.448 37.4781 117.448 37.6431C117.448 37.8256 117.517 37.959 117.654 38.0433C117.794 38.1275 118.028 38.1696 118.354 38.1696H119.355C119.976 38.1696 120.452 38.296 120.782 38.5488C121.112 38.798 121.277 39.1683 121.277 39.6598C121.277 40.2636 121.031 40.7287 120.539 41.0551C120.051 41.3851 119.355 41.5501 118.449 41.5501C117.729 41.5501 117.171 41.4114 116.775 41.1341C116.381 40.8568 116.185 40.4707 116.185 39.9757C116.185 39.5826 116.306 39.2561 116.548 38.9963C116.794 38.7366 117.126 38.5593 117.543 38.4645C117.371 38.3908 117.233 38.2872 117.127 38.1538C117.025 38.0169 116.975 37.8607 116.975 37.6852C116.975 37.3026 117.219 36.9656 117.707 36.6742C117.373 36.5373 117.113 36.3232 116.927 36.0318C116.741 35.737 116.648 35.4 116.648 35.0209C116.648 34.4487 116.829 33.9906 117.19 33.6466C117.556 33.299 118.047 33.1253 118.665 33.1253C119.04 33.1253 119.332 33.1621 119.539 33.2359H121.371ZM116.738 39.9283C116.738 40.7146 117.322 41.1078 118.491 41.1078C119.993 41.1078 120.745 40.6286 120.745 39.6703C120.745 39.3263 120.627 39.0771 120.392 38.9226C120.157 38.7682 119.776 38.6909 119.249 38.6909H118.312C117.262 38.6909 116.738 39.1034 116.738 39.9283ZM117.175 35.0209C117.175 35.4632 117.308 35.8072 117.575 36.0529C117.845 36.2951 118.205 36.4162 118.654 36.4162C119.132 36.4162 119.497 36.2951 119.75 36.0529C120.006 35.8107 120.134 35.4597 120.134 34.9998C120.134 34.5119 120.002 34.1468 119.739 33.9046C119.479 33.6588 119.114 33.536 118.644 33.536C118.187 33.536 117.828 33.6676 117.564 33.9309C117.305 34.1907 117.175 34.554 117.175 35.0209ZM127.637 39.0648C126.819 39.0648 126.179 38.8068 125.715 38.2908C125.252 37.7747 125.02 37.0551 125.02 36.1319C125.02 35.1841 125.261 34.4469 125.742 33.9204C126.223 33.3903 126.881 33.1253 127.716 33.1253C128.211 33.1253 128.685 33.2113 129.138 33.3833L128.996 33.8467C128.501 33.6817 128.071 33.5992 127.706 33.5992C127.004 33.5992 126.472 33.8168 126.11 34.2521C125.749 34.6839 125.568 35.307 125.568 36.1214C125.568 36.8936 125.749 37.4992 126.11 37.938C126.472 38.3732 126.977 38.5909 127.627 38.5909C128.146 38.5909 128.629 38.4979 129.075 38.3118V38.7962C128.71 38.9753 128.231 39.0648 127.637 39.0648ZM135.214 36.0898C135.214 37.0235 134.988 37.7537 134.535 38.2802C134.082 38.8033 133.457 39.0648 132.661 39.0648C132.159 39.0648 131.716 38.9437 131.334 38.7015C130.951 38.4592 130.658 38.1117 130.454 37.6589C130.251 37.2061 130.149 36.683 130.149 36.0898C130.149 35.156 130.375 34.4294 130.828 33.9098C131.281 33.3868 131.902 33.1253 132.692 33.1253C133.478 33.1253 134.095 33.3903 134.54 33.9204C134.99 34.4469 135.214 35.1701 135.214 36.0898ZM130.697 36.0898C130.697 36.8761 130.869 37.4904 131.213 37.9327C131.56 38.3715 132.05 38.5909 132.682 38.5909C133.314 38.5909 133.801 38.3715 134.145 37.9327C134.493 37.4904 134.667 36.8761 134.667 36.0898C134.667 35.2999 134.491 34.6874 134.14 34.2521C133.793 33.8168 133.303 33.5992 132.671 33.5992C132.039 33.5992 131.551 33.8168 131.207 34.2521C130.867 34.6839 130.697 35.2964 130.697 36.0898ZM143.95 38.9595V35.2052C143.95 34.647 143.841 34.2398 143.623 33.9836C143.406 33.7273 143.072 33.5992 142.623 33.5992C142.037 33.5992 141.603 33.7606 141.322 34.0836C141.042 34.4066 140.901 34.9138 140.901 35.6053V38.9595H140.369V35.0472C140.369 34.0818 139.927 33.5992 139.042 33.5992C138.442 33.5992 138.005 33.7747 137.731 34.1257C137.457 34.4733 137.321 35.0314 137.321 35.8002V38.9595H136.799V33.2359H137.231L137.342 34.0204H137.373C137.531 33.7361 137.756 33.5167 138.047 33.3622C138.339 33.2043 138.66 33.1253 139.011 33.1253C139.913 33.1253 140.492 33.464 140.748 34.1415H140.769C140.956 33.8151 141.205 33.5641 141.517 33.3886C141.833 33.213 142.191 33.1253 142.591 33.1253C143.216 33.1253 143.685 33.292 143.997 33.6255C144.31 33.959 144.466 34.489 144.466 35.2157V38.9595H143.95ZM148.768 39.0648C147.887 39.0648 147.244 38.7348 146.841 38.0749H146.804L146.82 38.5172C146.834 38.7769 146.841 39.0613 146.841 39.3702V41.5501H146.319V33.2359H146.762L146.862 34.052H146.893C147.286 33.4342 147.915 33.1253 148.778 33.1253C149.551 33.1253 150.139 33.3798 150.542 33.8888C150.949 34.3943 151.153 35.1314 151.153 36.1003C151.153 37.0411 150.939 37.7712 150.511 38.2908C150.086 38.8068 149.505 39.0648 148.768 39.0648ZM148.757 38.6014C149.344 38.6014 149.796 38.3838 150.116 37.9485C150.439 37.5132 150.6 36.9042 150.6 36.1214C150.6 34.4399 149.993 33.5992 148.778 33.5992C148.111 33.5992 147.622 33.7835 147.309 34.1521C146.997 34.5171 146.841 35.1139 146.841 35.9423V36.1108C146.841 37.006 146.99 37.6448 147.288 38.0275C147.59 38.4101 148.08 38.6014 148.757 38.6014ZM156.219 38.9595L156.087 38.0538H156.045C155.757 38.4224 155.46 38.6839 155.155 38.8384C154.853 38.9893 154.495 39.0648 154.081 39.0648C153.519 39.0648 153.082 38.9209 152.77 38.633C152.457 38.3452 152.301 37.9467 152.301 37.4377C152.301 36.8796 152.533 36.4461 152.996 36.1372C153.463 35.8282 154.137 35.665 155.018 35.6475L156.108 35.6159V35.2368C156.108 34.6926 155.997 34.2819 155.776 34.0046C155.555 33.7273 155.199 33.5886 154.707 33.5886C154.177 33.5886 153.628 33.7361 153.059 34.0309L152.864 33.5781C153.493 33.2832 154.114 33.1358 154.728 33.1358C155.357 33.1358 155.825 33.299 156.134 33.6255C156.447 33.952 156.603 34.461 156.603 35.1525V38.9595H156.219ZM154.112 38.5909C154.723 38.5909 155.204 38.4171 155.555 38.0696C155.91 37.7186 156.087 37.2324 156.087 36.6111V36.0476L155.086 36.0898C154.283 36.1284 153.709 36.2548 153.365 36.4689C153.024 36.6795 152.854 37.0095 152.854 37.4588C152.854 37.8169 152.963 38.0959 153.18 38.296C153.401 38.4926 153.712 38.5909 154.112 38.5909ZM162.453 38.9595V35.2473C162.453 34.6716 162.332 34.2539 162.09 33.9941C161.847 33.7308 161.472 33.5992 160.963 33.5992C160.278 33.5992 159.776 33.7729 159.457 34.1205C159.141 34.4645 158.983 35.0244 158.983 35.8002V38.9595H158.462V33.2359H158.904L159.004 34.0204H159.036C159.408 33.4237 160.069 33.1253 161.021 33.1253C162.319 33.1253 162.969 33.8221 162.969 35.2157V38.9595H162.453ZM163.864 33.2359H164.401L165.612 36.4478C165.981 37.4342 166.214 38.0994 166.313 38.4435H166.344C166.492 37.9906 166.732 37.3149 167.065 36.4162L168.277 33.2359H168.814L166.249 39.8862C166.042 40.4268 165.868 40.7919 165.728 40.9814C165.588 41.171 165.423 41.3132 165.233 41.4079C165.047 41.5027 164.821 41.5501 164.554 41.5501C164.354 41.5501 164.131 41.5132 163.885 41.4395V40.9867C164.089 41.0429 164.308 41.0709 164.543 41.0709C164.722 41.0709 164.88 41.0288 165.017 40.9446C165.154 40.8603 165.277 40.7287 165.386 40.5497C165.498 40.3741 165.626 40.0933 165.77 39.7072C165.918 39.3245 166.012 39.0753 166.055 38.9595L163.864 33.2359Z" fill="white"/>
<g opacity="0.3">
<path opacity="0.3" d="M3.3252 0.811371L14.1194 7.02932H41.5466V0.811371H3.3252Z" fill="white"/>
<path opacity="0.3" d="M16.6178 16.1214C12.235 18.2522 8.29565 21.1603 4.98573 24.6597V9.42578L16.6178 16.1214ZM0.00758448 42.2444C1.96396 35.4615 5.90326 29.5128 11.1582 25.0578L21.1069 42.2444H26.8623L15.1923 22.1005C19.1126 19.6285 23.5524 17.8996 28.3106 17.1148L0 0.811646V42.2444" fill="white"/>
<path opacity="0.3" d="M33.6873 18.2936L41.5469 18.2899V24.504H18.5178L17.46 22.6765C22.2599 19.9581 27.7916 18.3771 33.6873 18.2936Z" fill="white"/>
<path opacity="0.3" d="M25.1992 36.03L28.8011 42.2441H41.5517V36.03H25.1992Z" fill="white"/>
</g>
<path d="M4.13965 0L14.9339 6.21416H42.3611V0H4.13965Z" fill="white"/>
<path d="M17.4323 15.306C13.0494 17.4368 9.1101 20.3448 5.80019 23.8443V8.61034L17.4323 15.306ZM0.822038 41.429C2.77842 34.6461 6.71771 28.6973 11.9726 24.2424L21.9214 41.429H27.6805L16.0105 21.2851C19.9308 18.8131 24.3706 17.0842 29.1289 16.2994L0.814453 0V41.429" fill="white"/>
<path d="M34.5017 17.4823L42.3614 17.4785V23.6927H19.3322L18.2744 21.8652C23.0744 19.1467 28.6061 17.5619 34.5017 17.4823Z" fill="white"/>
<path d="M26.0127 35.2148L29.6146 41.429H42.3651V35.2148H26.0127Z" fill="white"/>
</svg>
