<svg width="271" height="63" viewBox="0 0 271 63" fill="none" xmlns="http://www.w3.org/2000/svg">
<rect width="271" height="63" rx="31.5" fill="#6702B7"/>
<path d="M63.1045 29.5576C63.1045 31.6494 62.5801 33.2754 61.5312 34.4355C60.4883 35.5957 59.0088 36.1758 57.0928 36.1758C55.1533 36.1758 53.6621 35.6016 52.6191 34.4531C51.582 33.2988 51.0635 31.6611 51.0635 29.54C51.0635 27.4189 51.585 25.79 52.6279 24.6533C53.6768 23.5166 55.1709 22.9482 57.1104 22.9482C59.0205 22.9482 60.4971 23.5254 61.54 24.6797C62.583 25.834 63.1045 27.46 63.1045 29.5576ZM53.2959 29.5576C53.2959 31.1396 53.6152 32.3408 54.2539 33.1611C54.8926 33.9756 55.8389 34.3828 57.0928 34.3828C58.3408 34.3828 59.2812 33.9785 59.9141 33.1699C60.5527 32.3613 60.8721 31.1572 60.8721 29.5576C60.8721 27.9814 60.5557 26.7861 59.9229 25.9717C59.2959 25.1572 58.3584 24.75 57.1104 24.75C55.8506 24.75 54.8984 25.1572 54.2539 25.9717C53.6152 26.7861 53.2959 27.9814 53.2959 29.5576ZM72.9482 26.2793V27.8965H69.7842V36H67.71V27.8965H64.5459V26.2793H72.9482ZM83.3193 26.2793V36H81.2451V27.9141H76.8857V36H74.8203V26.2793H83.3193ZM91.2119 36.1758C89.9814 36.1758 89.0264 35.7334 88.3467 34.8486H88.2236C88.3057 35.6689 88.3467 36.167 88.3467 36.3428V40.3242H86.2812V26.2793H87.9512C87.998 26.4609 88.0947 26.8945 88.2412 27.5801H88.3467C88.9912 26.5957 89.958 26.1035 91.2471 26.1035C92.46 26.1035 93.4033 26.543 94.0771 27.4219C94.7568 28.3008 95.0967 29.5342 95.0967 31.1221C95.0967 32.71 94.751 33.9492 94.0596 34.8398C93.374 35.7305 92.4248 36.1758 91.2119 36.1758ZM90.7109 27.791C89.8906 27.791 89.29 28.0312 88.9092 28.5117C88.5342 28.9922 88.3467 29.7598 88.3467 30.8145V31.1221C88.3467 32.3057 88.5342 33.1641 88.9092 33.6973C89.2842 34.2246 89.8965 34.4883 90.7461 34.4883C91.4609 34.4883 92.0117 34.1953 92.3984 33.6094C92.7852 33.0234 92.9785 32.1885 92.9785 31.1045C92.9785 30.0146 92.7852 29.1914 92.3984 28.6348C92.0176 28.0723 91.4551 27.791 90.7109 27.791ZM103.578 36L103.165 34.6465H103.095C102.626 35.2383 102.154 35.6426 101.68 35.8594C101.205 36.0703 100.596 36.1758 99.8516 36.1758C98.8965 36.1758 98.1494 35.918 97.6104 35.4023C97.0771 34.8867 96.8105 34.1572 96.8105 33.2139C96.8105 32.2119 97.1826 31.4561 97.9268 30.9463C98.6709 30.4365 99.8047 30.1582 101.328 30.1113L103.007 30.0586V29.54C103.007 28.9189 102.86 28.4561 102.567 28.1514C102.28 27.8408 101.832 27.6855 101.223 27.6855C100.725 27.6855 100.247 27.7588 99.79 27.9053C99.333 28.0518 98.8936 28.2246 98.4717 28.4238L97.8037 26.9473C98.3311 26.6719 98.9082 26.4639 99.5352 26.3232C100.162 26.1768 100.754 26.1035 101.311 26.1035C102.547 26.1035 103.479 26.373 104.105 26.9121C104.738 27.4512 105.055 28.2979 105.055 29.4521V36H103.578ZM100.502 34.5938C101.252 34.5938 101.853 34.3857 102.304 33.9697C102.761 33.5479 102.989 32.959 102.989 32.2031V31.3594L101.741 31.4121C100.769 31.4473 100.06 31.6113 99.6143 31.9043C99.1748 32.1914 98.9551 32.6338 98.9551 33.2314C98.9551 33.665 99.084 34.002 99.3418 34.2422C99.5996 34.4766 99.9863 34.5938 100.502 34.5938ZM116.375 28.7666C116.375 29.915 115.704 30.6094 114.362 30.8496V30.9199C115.112 31.0078 115.687 31.2451 116.085 31.6318C116.483 32.0186 116.683 32.5195 116.683 33.1348C116.683 34.0547 116.331 34.7637 115.628 35.2617C114.931 35.7539 113.914 36 112.578 36H107.938V26.2793H112.561C115.104 26.2793 116.375 27.1084 116.375 28.7666ZM114.564 33.0117C114.564 32.543 114.383 32.2119 114.02 32.0186C113.656 31.8193 113.111 31.7197 112.385 31.7197H110.003V34.4707H112.438C113.855 34.4707 114.564 33.9844 114.564 33.0117ZM114.31 28.9424C114.31 28.5557 114.157 28.2773 113.853 28.1074C113.554 27.9316 113.105 27.8438 112.508 27.8438H110.003V30.1816H112.2C112.892 30.1816 113.416 30.0938 113.773 29.918C114.131 29.7363 114.31 29.4111 114.31 28.9424ZM120.796 26.2793V31.2627C120.796 31.8428 120.749 32.6953 120.655 33.8203L125.533 26.2793H128.056V36H126.069V31.1045C126.069 30.835 126.084 30.3984 126.113 29.7949C126.148 29.1914 126.178 28.752 126.201 28.4766L121.341 36H118.818V26.2793H120.796ZM138.304 26.2793V27.8965H135.14V36H133.065V27.8965H129.901V26.2793H138.304ZM142.241 30.1641H144.676C147.389 30.1641 148.745 31.1016 148.745 32.9766C148.745 33.9668 148.399 34.7197 147.708 35.2354C147.017 35.7451 146.006 36 144.676 36H140.176V26.2793H142.241V30.1641ZM146.671 33.0293C146.671 32.543 146.486 32.2031 146.117 32.0098C145.748 31.8164 145.227 31.7197 144.553 31.7197H142.241V34.4707H144.588C145.268 34.4707 145.783 34.3477 146.135 34.1016C146.492 33.8555 146.671 33.498 146.671 33.0293ZM157.859 30.1641C158.803 30.1641 159.497 30.0615 159.942 29.8564C160.388 29.6455 160.61 29.3232 160.61 28.8896C160.61 28.0986 159.907 27.7031 158.501 27.7031C157.563 27.7031 156.605 27.9141 155.627 28.3359L154.959 26.7979C156.09 26.335 157.338 26.1035 158.703 26.1035C159.91 26.1035 160.848 26.3262 161.516 26.7715C162.184 27.2109 162.518 27.8438 162.518 28.6699C162.518 29.7598 161.894 30.4746 160.646 30.8145V30.8848C161.425 31.0957 161.981 31.3975 162.315 31.79C162.655 32.1826 162.825 32.6689 162.825 33.249C162.825 34.1396 162.433 34.8516 161.647 35.3848C160.868 35.9121 159.778 36.1758 158.378 36.1758C156.849 36.1758 155.68 35.9736 154.871 35.5693V33.7852C155.943 34.2891 157.054 34.541 158.202 34.541C159.028 34.541 159.664 34.4268 160.109 34.1982C160.561 33.9639 160.786 33.6094 160.786 33.1348C160.786 32.6484 160.561 32.291 160.109 32.0625C159.658 31.834 158.961 31.7197 158.018 31.7197H156.831V30.1641H157.859ZM171.148 36L170.735 34.6465H170.665C170.196 35.2383 169.725 35.6426 169.25 35.8594C168.775 36.0703 168.166 36.1758 167.422 36.1758C166.467 36.1758 165.72 35.918 165.181 35.4023C164.647 34.8867 164.381 34.1572 164.381 33.2139C164.381 32.2119 164.753 31.4561 165.497 30.9463C166.241 30.4365 167.375 30.1582 168.898 30.1113L170.577 30.0586V29.54C170.577 28.9189 170.431 28.4561 170.138 28.1514C169.851 27.8408 169.402 27.6855 168.793 27.6855C168.295 27.6855 167.817 27.7588 167.36 27.9053C166.903 28.0518 166.464 28.2246 166.042 28.4238L165.374 26.9473C165.901 26.6719 166.479 26.4639 167.105 26.3232C167.732 26.1768 168.324 26.1035 168.881 26.1035C170.117 26.1035 171.049 26.373 171.676 26.9121C172.309 27.4512 172.625 28.2979 172.625 29.4521V36H171.148ZM168.072 34.5938C168.822 34.5938 169.423 34.3857 169.874 33.9697C170.331 33.5479 170.56 32.959 170.56 32.2031V31.3594L169.312 31.4121C168.339 31.4473 167.63 31.6113 167.185 31.9043C166.745 32.1914 166.525 32.6338 166.525 33.2314C166.525 33.665 166.654 34.002 166.912 34.2422C167.17 34.4766 167.557 34.5938 168.072 34.5938ZM176.501 36H174.189L176.896 32.0186C176.24 31.8311 175.725 31.4971 175.35 31.0166C174.975 30.5303 174.787 29.9297 174.787 29.2148C174.787 28.2949 175.115 27.5771 175.771 27.0615C176.428 26.54 177.324 26.2793 178.461 26.2793H182.891V36H180.816V32.2559H178.856L176.501 36ZM176.8 29.2324C176.8 29.7305 176.987 30.1055 177.362 30.3574C177.743 30.6035 178.253 30.7266 178.892 30.7266H180.816V27.8438H178.566C178.004 27.8438 177.567 27.9639 177.257 28.2041C176.952 28.4443 176.8 28.7871 176.8 29.2324ZM194.281 28.7666C194.281 29.915 193.61 30.6094 192.269 30.8496V30.9199C193.019 31.0078 193.593 31.2451 193.991 31.6318C194.39 32.0186 194.589 32.5195 194.589 33.1348C194.589 34.0547 194.237 34.7637 193.534 35.2617C192.837 35.7539 191.82 36 190.484 36H185.844V26.2793H190.467C193.01 26.2793 194.281 27.1084 194.281 28.7666ZM192.471 33.0117C192.471 32.543 192.289 32.2119 191.926 32.0186C191.562 31.8193 191.018 31.7197 190.291 31.7197H187.909V34.4707H190.344C191.762 34.4707 192.471 33.9844 192.471 33.0117ZM192.216 28.9424C192.216 28.5557 192.063 28.2773 191.759 28.1074C191.46 27.9316 191.012 27.8438 190.414 27.8438H187.909V30.1816H190.106C190.798 30.1816 191.322 30.0938 191.68 29.918C192.037 29.7363 192.216 29.4111 192.216 28.9424ZM202.754 26.2793H205.021L201.005 30.9639L205.364 36H202.991L198.79 31.0693V36H196.725V26.2793H198.79V30.999L202.754 26.2793ZM205.496 26.2793H207.746L209.724 31.79C210.022 32.5752 210.222 33.3135 210.321 34.0049H210.392C210.444 33.6826 210.541 33.293 210.682 32.8359C210.822 32.373 211.566 30.1875 212.914 26.2793H215.146L210.989 37.292C210.233 39.3135 208.974 40.3242 207.21 40.3242C206.753 40.3242 206.308 40.2744 205.874 40.1748V38.54C206.185 38.6104 206.539 38.6455 206.938 38.6455C207.934 38.6455 208.634 38.0684 209.038 36.9141L209.398 36L205.496 26.2793Z" fill="white"/>
</svg>
