<svg width="168" height="399" viewBox="0 0 168 399" fill="none" xmlns="http://www.w3.org/2000/svg">
<path d="M152.727 198.25C135.32 189.854 127.824 169.343 135.983 152.427C127.824 169.343 107.106 176.247 89.6769 167.841C107.106 176.247 114.602 196.759 106.443 213.675C114.603 196.76 135.321 189.855 152.727 198.25Z" fill="#EDE73B" stroke="#2E3436" stroke-width="2" stroke-miterlimit="10" stroke-linecap="round" stroke-linejoin="round"/>
<path d="M50.5237 40.265C39.3338 34.8682 34.7374 21.2203 40.2561 9.77777C34.7374 21.2203 21.1956 26.1202 9.99146 20.7166C21.1967 26.1208 25.792 39.7681 20.2733 51.2107C25.792 39.7681 39.3327 34.8676 50.5237 40.265Z" fill="#EDE73B" stroke="#2E3436" stroke-width="2" stroke-miterlimit="10" stroke-linecap="round" stroke-linejoin="round"/>
<path d="M86.3656 378.598C74.9271 373.081 69.9347 359.739 75.2135 348.794C69.9347 359.739 56.3858 364.139 44.9327 358.615C56.3869 364.139 61.3782 377.481 56.0994 388.426C61.3782 377.481 74.9259 373.081 86.3656 378.598Z" fill="#EDE73B" stroke="#2E3436" stroke-width="2" stroke-miterlimit="10" stroke-linecap="round" stroke-linejoin="round"/>
</svg>
