<svg width="120" height="319" viewBox="0 0 120 319" fill="none" xmlns="http://www.w3.org/2000/svg">
<path d="M1 290C16.737 290 29.49 302.534 29.49 318C29.49 302.534 42.2429 290 58 290C42.2429 290 29.49 277.466 29.49 262C29.489 277.466 16.736 290 1 290Z" fill="#EDE73B" stroke="#2E3436" stroke-width="2" stroke-miterlimit="10" stroke-linecap="round" stroke-linejoin="round"/>
<path d="M82 153.5C92.2147 153.5 100.493 161.782 100.493 172C100.493 161.782 108.772 153.5 119 153.5C108.771 153.5 100.493 145.218 100.493 135C100.493 145.218 92.2157 153.5 82 153.5Z" fill="#EDE73B" stroke="#2E3436" stroke-width="2" stroke-miterlimit="10" stroke-linecap="round" stroke-linejoin="round"/>
<path d="M21 19C31.2147 19 39.4935 27.0578 39.4935 37C39.4935 27.0578 47.7722 19 58 19C47.7712 19 39.4935 10.9422 39.4935 1C39.4935 10.9422 31.2157 19 21 19Z" fill="#EDE73B" stroke="#2E3436" stroke-width="2" stroke-miterlimit="10" stroke-linecap="round" stroke-linejoin="round"/>
</svg>
