<svg width="168" height="399" viewBox="0 0 168 399" fill="none" xmlns="http://www.w3.org/2000/svg">
<path d="M14.7701 200.164C32.1775 208.559 39.6726 229.071 31.5141 245.987C39.6726 229.071 60.3906 222.166 77.8202 230.572C60.3906 222.166 52.8955 201.654 61.054 184.738C52.8944 201.654 32.1764 208.559 14.7701 200.164Z" fill="#EDE73B" stroke="#2E3436" stroke-width="2" stroke-miterlimit="10" stroke-linecap="round" stroke-linejoin="round"/>
<path d="M116.973 358.149C128.163 363.545 132.76 377.193 127.241 388.636C132.76 377.193 146.301 372.293 157.506 377.697C146.3 372.293 141.705 358.645 147.224 347.203C141.705 358.645 128.164 363.546 116.973 358.149Z" fill="#EDE73B" stroke="#2E3436" stroke-width="2" stroke-miterlimit="10" stroke-linecap="round" stroke-linejoin="round"/>
<path d="M81.1315 19.8157C92.57 25.3325 97.5623 38.6743 92.2836 49.6194C97.5623 38.6743 111.111 34.2748 122.564 39.7986C111.11 34.2743 106.119 20.933 111.398 9.9879C106.119 20.933 92.5711 25.333 81.1315 19.8157Z" fill="#EDE73B" stroke="#2E3436" stroke-width="2" stroke-miterlimit="10" stroke-linecap="round" stroke-linejoin="round"/>
</svg>
