<svg width="120" height="319" viewBox="0 0 120 319" fill="none" xmlns="http://www.w3.org/2000/svg">
<path d="M119 29C103.263 29 90.51 16.4664 90.51 1C90.51 16.4664 77.7571 29 62 29C77.7571 29 90.51 41.5336 90.51 57C90.511 41.5336 103.264 29 119 29Z" fill="#EDE73B" stroke="#2E3436" stroke-width="2" stroke-miterlimit="10" stroke-linecap="round" stroke-linejoin="round"/>
<path d="M38 165.5C27.7853 165.5 19.5065 157.218 19.5065 147C19.5065 157.218 11.2278 165.5 1 165.5C11.2288 165.5 19.5065 173.782 19.5065 184C19.5065 173.782 27.7843 165.5 38 165.5Z" fill="#EDE73B" stroke="#2E3436" stroke-width="2" stroke-miterlimit="10" stroke-linecap="round" stroke-linejoin="round"/>
<path d="M99 300C88.7853 300 80.5065 291.942 80.5065 282C80.5065 291.942 72.2278 300 62 300C72.2288 300 80.5065 308.058 80.5065 318C80.5065 308.058 88.7843 300 99 300Z" fill="#EDE73B" stroke="#2E3436" stroke-width="2" stroke-miterlimit="10" stroke-linecap="round" stroke-linejoin="round"/>
</svg>
